<?xml version="1.0" encoding="UTF-8"?><svg id="Layer_1" xmlns="http://www.w3.org/2000/svg" xmlns:xlink="http://www.w3.org/1999/xlink" viewBox="0 0 300 250"><defs><style>.cls-1{fill:#e27d60;}.cls-1,.cls-2,.cls-3,.cls-4,.cls-5,.cls-6,.cls-7,.cls-8,.cls-9,.cls-10,.cls-11,.cls-12,.cls-13,.cls-14,.cls-15{fill-rule:evenodd;}.cls-2{fill:#8dd7f7;}.cls-16,.cls-10{fill:#c7543a;}.cls-17,.cls-14{fill:#62210c;}.cls-3,.cls-18{fill:#d8e1e7;}.cls-19,.cls-6{fill:#231f20;}.cls-4{fill:#decb82;}.cls-5{fill:#a49963;}.cls-7{fill:#933c27;}.cls-20{clip-path:url(#clippath-1);}.cls-21{clip-path:url(#clippath-3);}.cls-22{clip-path:url(#clippath-4);}.cls-23{clip-path:url(#clippath-2);}.cls-24{clip-path:url(#clippath-6);}.cls-25{clip-path:url(#clippath-8);}.cls-26{clip-path:url(#clippath-5);}.cls-8{fill:#0d8fca;}.cls-9{fill:#c4cdd3;}.cls-27{fill:#fff;}.cls-28{clip-rule:evenodd;}.cls-28,.cls-29{fill:none;}.cls-11{fill:#b1b9bf;}.cls-12{fill:#b9c9d2;}.cls-13{fill:#511600;}.cls-15{fill:#6f9145;}.cls-29{stroke:#231f20;stroke-miterlimit:2.61;stroke-width:.22px;}.cls-30{clip-path:url(#clippath);}</style><clipPath id="clippath"><path class="cls-28" d="M124.79,167.46c-2.48,0-4.49,1.23-4.49,2.74s2.01,2.74,4.49,2.74,4.49-1.23,4.49-2.74-2.01-2.74-4.49-2.74"/></clipPath><clipPath id="clippath-1"><path class="cls-28" d="M148.12,165.3l-1.18,12.09,1.18,2.88h22.97s-16.73-1.07-18.62-6.31c-.96-2.65-.04-5.8,1.1-8.25-1.66-.27-3.47-.42-5.45-.42"/></clipPath><clipPath id="clippath-2"><path class="cls-28" d="M150.7,163.07c2.02,0,3.65,1,3.65,2.23s-1.63,2.23-3.65,2.23-3.65-1-3.65-2.23,1.63-2.23,3.65-2.23"/></clipPath><clipPath id="clippath-3"><path class="cls-28" d="M118.09,117.76c1.49,3.02.67,6.92-1.85,8.72-2.51,1.79-5.76.8-7.26-2.22-1.49-3.02-.67-6.92,1.85-8.72,2.51-1.8,5.76-.8,7.26,2.22"/></clipPath><clipPath id="clippath-4"><path class="cls-28" d="M99.01,145.08c-4.9-2.76-2.77-8.17,2.85-5.31,5.64,2.87,2.32,8.22-2.85,5.31"/></clipPath><clipPath id="clippath-5"><path class="cls-28" d="M164.9,113.16c-.05-3.37,2.38-6.54,5.42-7.07,3.04-.54,5.55,1.76,5.59,5.13.05,3.37-2.38,6.54-5.42,7.07-3.04.54-5.55-1.76-5.59-5.13"/></clipPath><clipPath id="clippath-6"><path class="cls-28" d="M190.15,137.53c-4.52,3.33-8.59-.83-3.67-4.78,4.93-3.96,8.45,1.26,3.67,4.78"/></clipPath><clipPath id="clippath-8"><path class="cls-28" d="M156.34,101.05c-.12.2-.23.39-.34.59-.15.29-.3.55-.45.82-.21-.24-.41-.47-.61-.71-2.48-2.86-5.63-4.81-8.9-5.2-2.64-.29-5.47.48-7.28,2.97-2.07,2.8-2.19,6.77-1.43,10.52.63,3.3,1.95,6.56,3.5,9.57,1.54,3,3.33,5.76,5,8.05,2.31,3.22,4.7,6.25,7.1,9.14.75.92,1.51,1.83,2.27,2.72h-.01c.94-2.55,2.53-5.09,3.8-7.04,2.18-3.34,4.51-6.45,6.7-9.61,2.16-3.13,4.34-6.46,5.97-10.02,1.19-2.64,2.29-5.94,1.99-9.2-.31-3.11-1.84-5.51-3.65-7.39-1.83-1.89-3.81-2.56-5.93-1.99-.4.1-.8.25-1.18.44-1.92.91-3.7,2.67-5.17,4.58l-1.37,1.75Z"/></clipPath></defs><path class="cls-7" d="M135.94,187.96h-22.31c-.15-23.28,22.46-23.28,22.31,0"/><path class="cls-10" d="M124.79,173.93h0c6.14,0,11.15,5.02,11.15,11.15v2.88h-22.31v-2.88c0-6.13,5.02-11.15,11.16-11.15"/><path class="cls-11" d="M124.79,167.46c-2.48,0-4.49,1.23-4.49,2.74s2.01,2.74,4.49,2.74,4.49-1.23,4.49-2.74-2.01-2.74-4.49-2.74"/><g class="cls-30"><path class="cls-9" d="M124.79,168.37c-2.13,0-3.85,1.14-3.85,2.54s1.72,2.54,3.85,2.54,3.85-1.14,3.85-2.54-1.72-2.54-3.85-2.54"/></g><rect class="cls-17" x="113.63" y="185.08" width="22.31" height="2.88"/><path class="cls-19" d="M124.6,150.39c.09-1.03.99-1.79,2.01-1.7,1.03.09,1.79.99,1.7,2.02l-1.52,17.95c-.09,1.03-.99,1.79-2.01,1.7-1.03-.09-1.79-.99-1.7-2.01l1.52-17.95Z"/><path class="cls-10" d="M148.12,165.3v14.97h22.97s-3.03-14.97-22.97-14.97"/><path class="cls-7" d="M148.12,165.3l-1.18,12.09,1.18,2.88h22.97s-16.73-1.07-18.62-6.31c-.96-2.65-.04-5.8,1.1-8.25-1.66-.27-3.47-.42-5.45-.42"/><g class="cls-20"><path class="cls-1" d="M163.48,164.05c-5.07,0-9.18,2.37-9.18,5.29s4.11,5.29,9.18,5.29,9.18-2.37,9.18-5.29-4.11-5.29-9.18-5.29"/></g><path class="cls-14" d="M148.12,177.39v2.88h22.97s-.24-1.18-1.02-2.88h-21.95Z"/><path class="cls-13" d="M146.94,177.39l-.3,2.88h24.45s-8.82-.56-14.38-2.88h-9.77Z"/><path class="cls-11" d="M150.7,163.07c2.02,0,3.65,1,3.65,2.23s-1.63,2.23-3.65,2.23-3.65-1-3.65-2.23,1.63-2.23,3.65-2.23"/><g class="cls-23"><path class="cls-9" d="M152.44,162.41c2.02,0,3.65,1,3.65,2.23s-1.63,2.23-3.65,2.23-3.65-1-3.65-2.23,1.63-2.23,3.65-2.23"/></g><path class="cls-19" d="M152.78,149.33c.03-.84-.62-1.54-1.46-1.57-.84-.03-1.54.63-1.57,1.46l-.52,14.63c-.03.84.62,1.54,1.46,1.57.84.03,1.54-.62,1.57-1.46l.51-14.63Z"/><path class="cls-12" d="M105.86,91.38l22.76-2.91c4.17,30.76,1.24,52.04-2.33,66.26l-27.13-10.63,6.7-52.72Z"/><path class="cls-5" d="M118.09,117.76c1.49,3.02.67,6.92-1.85,8.72-2.51,1.79-5.76.8-7.26-2.22-1.49-3.02-.67-6.92,1.85-8.72,2.51-1.8,5.76-.8,7.26,2.22"/><g class="cls-21"><path class="cls-4" d="M119.66,118.01c1.49,3.02.67,6.92-1.85,8.72-2.51,1.8-5.76.8-7.26-2.22-1.49-3.02-.67-6.92,1.85-8.72,2.51-1.79,5.76-.8,7.26,2.22"/></g><path class="cls-6" d="M97.61,141.11l-4.97,8.46c-.3.51-.37,1.06-.21,1.63.16.57.51,1,1.03,1.28l3.08,1.64c.55.29,1.15.33,1.73.11.59-.22,1-.64,1.22-1.23l3.13-8.43-5.02-3.46Z"/><path class="cls-6" d="M98.4,143.93l-2.5,4.26c-.24.42-.3.87-.17,1.33.13.47.42.82.84,1.05l2.51,1.34c.45.24.93.27,1.41.09.48-.18.82-.52,1-1l2.55-6.88-5.64-.18Z"/><path class="cls-11" d="M99.01,145.08c-4.9-2.76-2.77-8.17,2.85-5.31,5.64,2.87,2.32,8.22-2.85,5.31"/><g class="cls-22"><path class="cls-9" d="M99.57,144.49c-5.32-1.81-4.23-7.52,1.83-5.74,6.07,1.78,3.79,7.65-1.83,5.74"/></g><path class="cls-19" d="M111.3,120.64c2.45-4.64,3.81-.3,2.91,1.3l-11.19,19.97c-.52.93-1.71,1.26-2.64.74-.93-.52-1.26-1.71-.74-2.64l11.66-19.36Z"/><path class="cls-5" d="M164.9,113.16c-.05-3.37,2.38-6.54,5.42-7.07,3.04-.54,5.55,1.76,5.59,5.13.05,3.37-2.38,6.54-5.42,7.07-3.04.54-5.55-1.76-5.59-5.13"/><g class="cls-26"><path class="cls-4" d="M163.59,112.26c-.05-3.37,2.38-6.54,5.42-7.07,3.04-.54,5.55,1.76,5.59,5.13.05,3.37-2.38,6.54-5.42,7.07-3.04.54-5.55-1.76-5.59-5.13"/></g><path class="cls-6" d="M185.96,137.17l5.67,8.01c.34.48.82.77,1.4.86.59.09,1.12-.05,1.59-.42l2.76-2.14c.5-.38.77-.91.81-1.53.04-.63-.17-1.18-.62-1.62l-6.41-6.32-5.21,3.15Z"/><path class="cls-6" d="M188.85,137.62l2.85,4.03c.28.39.67.63,1.14.7.48.07.92-.04,1.3-.34l2.25-1.74c.4-.31.63-.74.66-1.25.03-.51-.14-.96-.51-1.32l-5.22-5.15-2.48,5.07Z"/><path class="cls-11" d="M190.15,137.53c-4.52,3.33-8.59-.83-3.67-4.78,4.93-3.96,8.45,1.26,3.67,4.78"/><g class="cls-24"><path class="cls-9" d="M189.84,136.77c-3.83,4.11-8.59.77-4.49-4.02,4.12-4.8,8.53-.32,4.49,4.02"/></g><path class="cls-19" d="M172.91,116.29c-3.23-4.14,1.29-3.6,2.38-2.12l13.61,18.4c.63.86.45,2.07-.41,2.71-.86.63-2.07.45-2.71-.41l-12.87-18.58Z"/><path class="cls-19" d="M146.34,63.94c-.02-.36-.33-.63-.69-.61-.36.02-.63.33-.61.69l1.57,25.89c.02.36.33.63.69.61.36-.02.63-.33.61-.69l-1.57-25.89Z"/><path class="cls-19" d="M145.27,75.7c-.71.04-1.26.66-1.22,1.37.04.71.66,1.26,1.37,1.22l2.28-.14c.71-.04,1.26-.66,1.22-1.37-.04-.72-.66-1.26-1.37-1.22l-2.28.14Z"/><path class="cls-19" d="M145.47,70.97c-.71.04-1.26.66-1.22,1.37.04.71.66,1.26,1.37,1.22l1.3-.08c.71-.04,1.26-.66,1.22-1.37-.04-.71-.66-1.26-1.37-1.22l-1.31.08Z"/><path class="cls-6" d="M145.59,62.17c1-.06,1.86.7,1.92,1.7.06,1-.7,1.86-1.7,1.92-1,.06-1.86-.7-1.92-1.7-.06-1,.7-1.86,1.7-1.92"/><path class="cls-3" d="M177.95,89.18l-49.34-.71c2.67,21.62,1.42,42.92-2.33,66.26l54.1-6.39c1.07-20.15.29-39.88-2.43-59.15"/><path class="cls-12" d="M135.82,143.53c-1.06.1-1.97,1.29-2.01,2.63-.04,1.34.79,2.34,1.85,2.22,1.06-.11,1.96-1.29,2-2.62.04-1.33-.79-2.33-1.85-2.23"/><path class="cls-12" d="M149.92,142.27c-.99.1-1.84,1.24-1.89,2.54-.05,1.3.73,2.27,1.72,2.16.99-.11,1.83-1.24,1.88-2.53.05-1.28-.71-2.26-1.7-2.17"/><path class="cls-12" d="M163.08,140.99c-.92.09-1.72,1.18-1.77,2.44-.05,1.26.66,2.19,1.59,2.09.92-.1,1.7-1.19,1.76-2.44.05-1.25-.64-2.19-1.57-2.1"/><path class="cls-12" d="M175.37,139.8c-.87.08-1.61,1.14-1.67,2.36-.06,1.22.6,2.14,1.46,2.04.86-.1,1.62-1.16,1.67-2.36.05-1.21-.6-2.12-1.47-2.04"/><path class="cls-8" d="M135.46,143.18c-1.07.1-1.97,1.29-2.02,2.63-.05,1.35.79,2.34,1.86,2.22,1.07-.12,1.95-1.28,2-2.62.05-1.34-.78-2.33-1.84-2.23"/><path class="cls-15" d="M149.58,141.83c-.99.1-1.85,1.24-1.89,2.54-.05,1.3.72,2.26,1.71,2.15.99-.11,1.83-1.23,1.88-2.53.05-1.29-.7-2.26-1.7-2.16"/><path class="cls-4" d="M162.75,140.56c-.92.09-1.73,1.19-1.78,2.45-.05,1.25.67,2.19,1.59,2.09.92-.1,1.71-1.19,1.77-2.44.06-1.25-.66-2.2-1.58-2.1"/><path class="cls-10" d="M175.06,139.38c-.87.08-1.61,1.14-1.67,2.36-.06,1.22.61,2.12,1.48,2.03.87-.09,1.61-1.14,1.66-2.35.05-1.21-.6-2.13-1.47-2.04"/><path class="cls-6" d="M156.34,101.05c-.12.2-.23.39-.34.59-.15.29-.3.55-.45.82-.21-.24-.41-.47-.61-.71-2.48-2.86-5.63-4.81-8.9-5.2-2.64-.29-5.47.48-7.28,2.97-2.07,2.8-2.19,6.77-1.43,10.52.63,3.3,1.95,6.56,3.5,9.57,1.54,3,3.33,5.76,5,8.05,2.31,3.22,4.7,6.25,7.1,9.14.75.92,1.51,1.83,2.27,2.72h-.01c.94-2.55,2.53-5.09,3.8-7.04,2.18-3.34,4.51-6.45,6.7-9.61,2.16-3.13,4.34-6.46,5.97-10.02,1.19-2.64,2.29-5.94,1.99-9.2-.31-3.11-1.84-5.51-3.65-7.39-1.83-1.89-3.81-2.56-5.93-1.99-.4.1-.8.25-1.18.44-1.92.91-3.7,2.67-5.17,4.58l-1.37,1.75Z"/><g class="cls-25"><path class="cls-29" d="M173.69,94.08l-36.78,45.43M136.9,94.08l36.78,45.43"/></g><path class="cls-2" d="M147.34,106.2c-1.54,0-2.75,1.68-2.68,3.74.07,2.06,1.36,3.69,2.9,3.65,1.55-.04,2.74-1.7,2.69-3.73-.06-2.03-1.36-3.67-2.91-3.66"/><path class="cls-2" d="M163.9,106.14c-1.42,0-2.53,1.6-2.48,3.57.05,1.97,1.24,3.54,2.65,3.51,1.41-.04,2.52-1.63,2.47-3.57-.05-1.95-1.24-3.51-2.65-3.5"/><path class="cls-12" d="M155.47,139.84c.94-2.7,2.65-5.45,4.02-7.53,2.23-3.41,4.61-6.59,6.85-9.82,2.21-3.2,4.44-6.6,6.1-10.25,1.22-2.7,2.34-6.08,2.03-9.4-.32-3.18-1.88-5.63-3.73-7.56-1.88-1.93-3.89-2.62-6.07-2.03-.41.11-.81.26-1.2.45-1.96.93-3.78,2.73-5.29,4.68-.61.8-1.27,1.73-1.85,2.67l1.37-1.75c1.48-1.91,3.25-3.66,5.17-4.58.38-.19.78-.34,1.18-.44,2.12-.58,4.09.1,5.93,1.99,1.81,1.88,3.34,4.28,3.65,7.39.3,3.25-.8,6.56-1.99,9.2-1.63,3.56-3.81,6.89-5.97,10.02-2.19,3.16-4.51,6.27-6.7,9.61-1.28,1.94-2.86,4.49-3.8,7.02h.01s.12.15.12.15l.04.05.04.05.04.05.04.05Z"/><path class="cls-27" d="M152.44,124.49c1-.88,2.16-1.59,3.41-2.07,1.31-.5,2.79-.57,4.01-1.26.84-.48.08-1.77-.76-1.3-.6.34-1.28.45-1.95.6-.71.16-1.39.38-2.06.65-1.36.57-2.6,1.34-3.71,2.31-.73.64.34,1.69,1.06,1.06h0Z"/><path class="cls-18" d="M171.04,85.3c-.32,0-.64-.04-.97-.13-1.95-.53-3.11-2.56-2.58-4.51.53-1.95,2.56-3.11,4.51-2.58h0c.95.26,1.74.87,2.22,1.72.49.85.61,1.84.35,2.79-.45,1.63-1.93,2.71-3.54,2.71Z"/><path class="cls-18" d="M165.58,87.75c-.19,0-.38-.03-.58-.08-.56-.15-1.03-.52-1.32-1.02-.29-.51-.36-1.1-.21-1.66.32-1.16,1.52-1.85,2.68-1.53h0c.56.15,1.03.52,1.32,1.02.29.51.36,1.1.21,1.66-.27.97-1.15,1.61-2.11,1.61Z"/><path class="cls-18" d="M226.91,58.97c0-6.03-4.89-10.92-10.92-10.92-1.13,0-2.23.17-3.26.49-1.49-5.7-6.67-9.92-12.84-9.92-5.07,0-9.48,2.85-11.71,7.03-1.61-1.01-3.5-1.6-5.54-1.6-4.68,0-8.64,3.08-9.96,7.33-.47-.07-.95-.11-1.44-.11-5.14,0-9.31,4.17-9.31,9.31,0,4.42,3.08,8.11,7.21,9.07.48,3.37,3.37,5.96,6.87,5.96,2.14,0,4.06-.97,5.33-2.5,1.41,5.15,6.12,8.94,11.72,8.94,4.17,0,7.85-2.1,10.04-5.3,1.93,1.3,4.26,2.05,6.76,2.05,6.21,0,11.33-4.66,12.06-10.67,3-1.95,4.99-5.32,4.99-9.17Z"/><path class="cls-16" d="M193.22,63.19c0-.14-.02-.28-.02-.43,0-.15,0-.37,0-.66,0-1.08.16-1.96.48-2.64s.82-1.21,1.51-1.62c.29-.16.7-.37,1.23-.61,1.26-.57,1.89-1.22,1.89-1.95,0-.54-.18-.98-.55-1.31-.37-.33-.87-.5-1.5-.5-.72,0-1.27.21-1.65.64-.38.43-.57,1.04-.57,1.83v.09h-3.78c-1.4,0-2.43-1.4-1.93-2.7.4-1.04,1.02-1.91,1.86-2.61,1.48-1.24,3.53-1.85,6.16-1.85,2.49,0,4.48.57,5.99,1.71,1.5,1.14,2.26,2.64,2.26,4.5,0,.67-.09,1.27-.28,1.79-.18.53-.46,1-.83,1.42-.44.49-1.24,1.05-2.42,1.67-.48.25-.85.45-1.09.58-.5.29-.84.58-1,.86-.17.28-.25.69-.25,1.23,0,.06,0,.15.01.27s.01.22.01.3h-5.53ZM192.84,68.78v-1.82c0-1.13.91-2.04,2.04-2.04h2.17c1.13,0,2.04.91,2.04,2.04v1.82c0,1.13-.91,2.04-2.04,2.04h-2.17c-1.13,0-2.04-.91-2.04-2.04Z"/></svg>