<?xml version="1.0" encoding="UTF-8"?><svg id="Layer_1" xmlns="http://www.w3.org/2000/svg" xmlns:xlink="http://www.w3.org/1999/xlink" viewBox="0 0 239 250"><defs><style>.cls-1,.cls-2{fill:none;}.cls-3{fill:#e27d60;}.cls-3,.cls-4,.cls-5,.cls-6,.cls-7,.cls-8,.cls-9,.cls-10,.cls-11,.cls-12,.cls-13,.cls-14,.cls-15,.cls-16,.cls-17{fill-rule:evenodd;}.cls-4{fill:#8dd7f7;}.cls-18,.cls-12{fill:#c7543a;}.cls-19,.cls-16{fill:#62210c;}.cls-5,.cls-20{fill:#d8e1e7;}.cls-21,.cls-8{fill:#231f20;}.cls-6{fill:#decb82;}.cls-7{fill:#a49963;}.cls-9{fill:#933c27;}.cls-22{clip-path:url(#clippath-1);}.cls-23{clip-path:url(#clippath-3);}.cls-24{clip-path:url(#clippath-4);}.cls-25{clip-path:url(#clippath-2);}.cls-26{clip-path:url(#clippath-7);}.cls-27{clip-path:url(#clippath-6);}.cls-28{clip-path:url(#clippath-5);}.cls-10{fill:#0d8fca;}.cls-11{fill:#c4cdd3;}.cls-29{fill:#fff;}.cls-13{fill:#b1b9bf;}.cls-14{fill:#b9c9d2;}.cls-15{fill:#511600;}.cls-17{fill:#6f9145;}.cls-2{stroke:#231f20;stroke-miterlimit:2.61;stroke-width:.22px;}.cls-30{clip-path:url(#clippath);}</style><clipPath id="clippath"><ellipse class="cls-1" cx="64.37" cy="214.24" rx="7.02" ry="4.28"/></clipPath><clipPath id="clippath-1"><path class="cls-1" d="M100.84,206.58l-1.84,18.9,1.84,4.5h35.91s-26.15-1.67-29.11-9.86c-1.5-4.14-.06-9.07,1.72-12.9-2.59-.42-5.42-.66-8.52-.66v.02Z"/></clipPath><clipPath id="clippath-2"><path class="cls-1" d="M104.87,203.09c3.16,0,5.71,1.56,5.71,3.49s-2.55,3.49-5.71,3.49-5.71-1.56-5.71-3.49,2.55-3.49,5.71-3.49Z"/></clipPath><clipPath id="clippath-3"><path class="cls-1" d="M53.9,132.27c2.33,4.72,1.05,10.82-2.89,13.63-3.92,2.8-9,1.25-11.35-3.47-2.33-4.72-1.05-10.82,2.89-13.63,3.92-2.81,9-1.25,11.35,3.47Z"/></clipPath><clipPath id="clippath-4"><path class="cls-1" d="M24.07,174.97c-7.66-4.31-4.33-12.77,4.46-8.3,8.82,4.49,3.63,12.85-4.46,8.3Z"/></clipPath><clipPath id="clippath-5"><path class="cls-1" d="M127.07,125.07c-.08-5.27,3.72-10.22,8.47-11.05,4.75-.84,8.68,2.75,8.74,8.02.08,5.27-3.72,10.22-8.47,11.05-4.75.84-8.68-2.75-8.74-8.02Z"/></clipPath><clipPath id="clippath-6"><path class="cls-1" d="M166.54,163.17c-7.07,5.21-13.43-1.3-5.74-7.47,7.71-6.19,13.21,1.97,5.74,7.47Z"/></clipPath><clipPath id="clippath-7"><path class="cls-1" d="M113.69,106.14c-.19.31-.36.61-.53.92-.23.45-.47.86-.7,1.28-.33-.38-.64-.73-.95-1.11-3.88-4.47-8.8-7.52-13.91-8.13-4.13-.45-8.55.75-11.38,4.64-3.24,4.38-3.42,10.58-2.24,16.44.98,5.16,3.05,10.25,5.47,14.96,2.41,4.69,5.21,9,7.82,12.58,3.61,5.03,7.35,9.77,11.1,14.29,1.17,1.44,2.36,2.86,3.55,4.25h-.02c1.47-3.99,3.95-7.96,5.94-11,3.41-5.22,7.05-10.08,10.47-15.02,3.38-4.89,6.78-10.1,9.33-15.66,1.86-4.13,3.58-9.29,3.11-14.38-.48-4.86-2.88-8.61-5.71-11.55-2.86-2.95-5.96-4-9.27-3.11-.63.16-1.25.39-1.84.69-3,1.42-5.78,4.17-8.08,7.16l-2.14,2.74-.02.02Z"/></clipPath></defs><path class="cls-9" d="M81.8,242h-34.87c-.23-36.39,35.11-36.39,34.87,0"/><path class="cls-12" d="M64.37,220.07h0c9.6,0,17.43,7.85,17.43,17.43v4.5h-34.87v-4.5c0-9.58,7.85-17.43,17.45-17.43"/><path class="cls-13" d="M64.37,209.95c-3.88,0-7.02,1.92-7.02,4.28s3.14,4.28,7.02,4.28,7.02-1.92,7.02-4.28-3.14-4.28-7.02-4.28"/><g class="cls-30"><path class="cls-11" d="M64.37,211.38c-3.33,0-6.02,1.78-6.02,3.97s2.69,3.97,6.02,3.97,6.02-1.78,6.02-3.97-2.69-3.97-6.02-3.97"/></g><rect class="cls-19" x="46.92" y="237.5" width="34.87" height="4.5"/><path class="cls-21" d="M64.07,183.27c.14-1.61,1.55-2.8,3.14-2.66,1.61.14,2.8,1.55,2.66,3.16l-2.38,28.06c-.14,1.61-1.55,2.8-3.14,2.66-1.61-.14-2.8-1.55-2.66-3.14l2.38-28.06v-.02Z"/><path class="cls-12" d="M100.84,206.58v23.4h35.91s-4.74-23.4-35.91-23.4"/><path class="cls-9" d="M100.84,206.58l-1.84,18.9,1.84,4.5h35.91s-26.15-1.67-29.11-9.86c-1.5-4.14-.06-9.07,1.72-12.9-2.59-.42-5.42-.66-8.52-.66"/><g class="cls-22"><path class="cls-3" d="M124.85,204.62c-7.93,0-14.35,3.7-14.35,8.27s6.42,8.27,14.35,8.27,14.35-3.7,14.35-8.27-6.42-8.27-14.35-8.27"/></g><path class="cls-16" d="M100.84,225.48v4.5h35.91s-.38-1.84-1.59-4.5h-34.31Z"/><path class="cls-15" d="M98.99,225.48l-.47,4.5h38.22s-13.79-.88-22.48-4.5h-15.27,0Z"/><path class="cls-13" d="M104.87,203.09c3.16,0,5.71,1.56,5.71,3.49s-2.55,3.49-5.71,3.49-5.71-1.56-5.71-3.49,2.55-3.49,5.71-3.49"/><g class="cls-25"><path class="cls-11" d="M107.59,202.06c3.16,0,5.71,1.56,5.71,3.49s-2.55,3.49-5.71,3.49-5.71-1.56-5.71-3.49,2.55-3.49,5.71-3.49"/></g><path class="cls-21" d="M108.12,181.61c.05-1.31-.97-2.41-2.28-2.45-1.31-.05-2.41.98-2.45,2.28l-.81,22.87c-.05,1.31.97,2.41,2.28,2.45,1.31.05,2.41-.97,2.45-2.28l.8-22.87h.02Z"/><path class="cls-14" d="M34.78,91.03l35.58-4.55c6.52,48.08,1.94,81.35-3.64,103.58l-42.41-16.62s10.47-82.41,10.47-82.41Z"/><path class="cls-7" d="M53.9,132.27c2.33,4.72,1.05,10.82-2.89,13.63-3.92,2.8-9,1.25-11.35-3.47-2.33-4.72-1.05-10.82,2.89-13.63,3.92-2.81,9-1.25,11.35,3.47"/><g class="cls-23"><path class="cls-6" d="M56.35,132.66c2.33,4.72,1.05,10.82-2.89,13.63-3.92,2.81-9,1.25-11.35-3.47-2.33-4.72-1.05-10.82,2.89-13.63,3.92-2.8,9-1.25,11.35,3.47"/></g><path class="cls-8" d="M21.88,168.77l-7.77,13.22c-.47.8-.58,1.66-.33,2.55s.8,1.56,1.61,2l4.81,2.56c.86.45,1.8.52,2.7.17.92-.34,1.56-1,1.91-1.92l4.89-13.18-7.85-5.41h.02Z"/><path class="cls-8" d="M23.12,173.17l-3.91,6.66c-.38.66-.47,1.36-.27,2.08.2.73.66,1.28,1.31,1.64l3.92,2.09c.7.38,1.45.42,2.2.14.75-.28,1.28-.81,1.56-1.56l3.99-10.75-8.82-.28v-.02Z"/><path class="cls-13" d="M24.07,174.97c-7.66-4.31-4.33-12.77,4.46-8.3,8.82,4.49,3.63,12.85-4.46,8.3"/><g class="cls-24"><path class="cls-11" d="M24.95,174.05c-8.32-2.83-6.61-11.76,2.86-8.97,9.49,2.78,5.92,11.96-2.86,8.97"/></g><path class="cls-21" d="M43.28,136.77c3.83-7.25,5.96-.47,4.55,2.03l-17.49,31.22c-.81,1.45-2.67,1.97-4.13,1.16-1.45-.81-1.97-2.67-1.16-4.13l18.23-30.26v-.02Z"/><path class="cls-7" d="M127.07,125.07c-.08-5.27,3.72-10.22,8.47-11.05,4.75-.84,8.68,2.75,8.74,8.02.08,5.27-3.72,10.22-8.47,11.05-4.75.84-8.68-2.75-8.74-8.02"/><g class="cls-28"><path class="cls-6" d="M125.02,123.67c-.08-5.27,3.72-10.22,8.47-11.05,4.75-.84,8.68,2.75,8.74,8.02.08,5.27-3.72,10.22-8.47,11.05-4.75.84-8.68-2.75-8.74-8.02"/></g><path class="cls-8" d="M159.99,162.61l8.86,12.52c.53.75,1.28,1.2,2.19,1.34.92.14,1.75-.08,2.49-.66l4.31-3.35c.78-.59,1.2-1.42,1.27-2.39.06-.98-.27-1.84-.97-2.53l-10.02-9.88-8.14,4.92.02.02Z"/><path class="cls-8" d="M164.51,163.31l4.46,6.3c.44.61,1.05.98,1.78,1.09.75.11,1.44-.06,2.03-.53l3.52-2.72c.63-.48.98-1.16,1.03-1.95s-.22-1.5-.8-2.06l-8.16-8.05-3.88,7.93h.02Z"/><path class="cls-13" d="M166.54,163.17c-7.07,5.21-13.43-1.3-5.74-7.47,7.71-6.19,13.21,1.97,5.74,7.47"/><g class="cls-27"><path class="cls-11" d="M166.05,161.98c-5.99,6.42-13.43,1.2-7.02-6.28,6.44-7.5,13.33-.5,7.02,6.28"/></g><path class="cls-21" d="M139.59,129.97c-5.05-6.47,2.02-5.63,3.72-3.31l21.27,28.76c.98,1.34.7,3.24-.64,4.24-1.34.98-3.24.7-4.24-.64,0,0-20.12-29.04-20.12-29.04Z"/><path class="cls-21" d="M98.05,48.13c-.03-.56-.52-.98-1.08-.95s-.98.52-.95,1.08l2.45,40.47c.03.56.52.98,1.08.95s.98-.52.95-1.08c0,0-2.45-40.47-2.45-40.47Z"/><path class="cls-21" d="M96.38,66.52c-1.11.06-1.97,1.03-1.91,2.14s1.03,1.97,2.14,1.91l3.56-.22c1.11-.06,1.97-1.03,1.91-2.14-.06-1.13-1.03-1.97-2.14-1.91l-3.56.22Z"/><path class="cls-21" d="M96.69,59.12c-1.11.06-1.97,1.03-1.91,2.14s1.03,1.97,2.14,1.91l2.03-.13c1.11-.06,1.97-1.03,1.91-2.14s-1.03-1.97-2.14-1.91l-2.05.13h.02Z"/><path class="cls-8" d="M96.88,45.37c1.56-.09,2.91,1.09,3,2.66.09,1.56-1.09,2.91-2.66,3-1.56.09-2.91-1.09-3-2.66s1.09-2.91,2.66-3"/><path class="cls-5" d="M147.47,87.59l-77.13-1.11c4.17,33.8,2.22,67.09-3.64,103.58l84.57-9.99c1.67-31.5.45-62.34-3.8-92.46"/><path class="cls-14" d="M81.61,172.55c-1.66.16-3.08,2.02-3.14,4.11-.06,2.09,1.23,3.66,2.89,3.47,1.66-.17,3.06-2.02,3.13-4.1s-1.23-3.64-2.89-3.49"/><path class="cls-14" d="M103.65,170.58c-1.55.16-2.88,1.94-2.95,3.97-.08,2.03,1.14,3.55,2.69,3.38s2.86-1.94,2.94-3.95c.08-2-1.11-3.53-2.66-3.39"/><path class="cls-14" d="M124.22,168.58c-1.44.14-2.69,1.84-2.77,3.81-.08,1.97,1.03,3.42,2.49,3.27,1.44-.16,2.66-1.86,2.75-3.81.08-1.95-1-3.42-2.45-3.28"/><path class="cls-14" d="M143.43,166.72c-1.36.13-2.52,1.78-2.61,3.69s.94,3.35,2.28,3.19,2.53-1.81,2.61-3.69c.08-1.89-.94-3.31-2.3-3.19"/><path class="cls-10" d="M81.05,172c-1.67.16-3.08,2.02-3.16,4.11-.08,2.11,1.23,3.66,2.91,3.47s3.05-2,3.13-4.1-1.22-3.64-2.88-3.49"/><path class="cls-17" d="M103.12,169.89c-1.55.16-2.89,1.94-2.95,3.97-.08,2.03,1.13,3.53,2.67,3.36s2.86-1.92,2.94-3.95c.08-2.02-1.09-3.53-2.66-3.38"/><path class="cls-6" d="M123.71,167.91c-1.44.14-2.7,1.86-2.78,3.83-.08,1.95,1.05,3.42,2.49,3.27s2.67-1.86,2.77-3.81-1.03-3.44-2.47-3.28"/><path class="cls-12" d="M142.95,166.06c-1.36.13-2.52,1.78-2.61,3.69s.95,3.31,2.31,3.17,2.52-1.78,2.59-3.67-.94-3.33-2.3-3.19"/><path class="cls-8" d="M113.69,106.14c-.19.31-.36.61-.53.92-.23.45-.47.86-.7,1.28-.33-.38-.64-.73-.95-1.11-3.88-4.47-8.8-7.52-13.91-8.13-4.13-.45-8.55.75-11.38,4.64-3.24,4.38-3.42,10.58-2.24,16.44.98,5.16,3.05,10.25,5.47,14.96,2.41,4.69,5.21,9,7.82,12.58,3.61,5.03,7.35,9.77,11.1,14.29,1.17,1.44,2.36,2.86,3.55,4.25h-.02c1.47-3.99,3.95-7.96,5.94-11,3.41-5.22,7.05-10.08,10.47-15.02,3.38-4.89,6.78-10.1,9.33-15.66,1.86-4.13,3.58-9.29,3.11-14.38-.48-4.86-2.88-8.61-5.71-11.55-2.86-2.95-5.96-4-9.27-3.11-.63.16-1.25.39-1.84.69-3,1.42-5.78,4.17-8.08,7.16l-2.14,2.74-.02.02Z"/><g class="cls-26"><path class="cls-2" d="M140.81,95.25l-57.49,71.02M83.3,95.25l57.49,71.02"/></g><path class="cls-4" d="M99.62,114.19c-2.41,0-4.3,2.63-4.19,5.85s2.13,5.77,4.53,5.71c2.42-.06,4.28-2.66,4.2-5.83-.09-3.17-2.13-5.74-4.55-5.72"/><path class="cls-4" d="M125.5,114.1c-2.22,0-3.95,2.5-3.88,5.58s1.94,5.53,4.14,5.49c2.2-.06,3.94-2.55,3.86-5.58-.08-3.05-1.94-5.49-4.14-5.47"/><path class="cls-14" d="M112.33,166.78c1.47-4.22,4.14-8.52,6.28-11.77,3.49-5.33,7.21-10.3,10.71-15.35,3.45-5,6.94-10.32,9.54-16.02,1.91-4.22,3.66-9.5,3.17-14.69-.5-4.97-2.94-8.8-5.83-11.82-2.94-3.02-6.08-4.1-9.49-3.17-.64.17-1.27.41-1.88.7-3.06,1.45-5.91,4.27-8.27,7.32-.95,1.25-1.99,2.7-2.89,4.17l2.14-2.74c2.31-2.99,5.08-5.72,8.08-7.16.59-.3,1.22-.53,1.84-.69,3.31-.91,6.39.16,9.27,3.11,2.83,2.94,5.22,6.69,5.71,11.55.47,5.08-1.25,10.25-3.11,14.38-2.55,5.56-5.96,10.77-9.33,15.66-3.42,4.94-7.05,9.8-10.47,15.02-2,3.03-4.47,7.02-5.94,10.97h.02l.19.23.06.08.06.08.06.08.06.08.02-.03Z"/><path class="cls-29" d="M107.59,142.79c1.56-1.38,3.38-2.49,5.33-3.24,2.05-.78,4.36-.89,6.27-1.97,1.31-.75.13-2.77-1.19-2.03-.94.53-2,.7-3.05.94-1.11.25-2.17.59-3.22,1.02-2.13.89-4.06,2.09-5.8,3.61-1.14,1,.53,2.64,1.66,1.66h0v.02Z"/><path class="cls-20" d="M136.67,81.52c-.5,0-1-.06-1.52-.2-3.05-.83-4.86-4-4.03-7.05.83-3.05,4-4.86,7.05-4.03h0c1.49.41,2.72,1.36,3.47,2.69.77,1.33.95,2.88.55,4.36-.7,2.55-3.02,4.24-5.53,4.24h.02Z"/><path class="cls-20" d="M128.13,85.35c-.3,0-.59-.05-.91-.13-.88-.23-1.61-.81-2.06-1.59-.45-.8-.56-1.72-.33-2.59.5-1.81,2.38-2.89,4.19-2.39h0c.88.23,1.61.81,2.06,1.59.45.8.56,1.72.33,2.59-.42,1.52-1.8,2.52-3.3,2.52h.02Z"/><path class="cls-20" d="M224,40.37c0-9.43-7.64-17.07-17.07-17.07-1.77,0-3.49.27-5.1.77-2.33-8.91-10.43-15.51-20.07-15.51-7.93,0-14.82,4.46-18.3,10.99-2.52-1.58-5.47-2.5-8.66-2.5-7.32,0-13.51,4.81-15.57,11.46-.73-.11-1.49-.17-2.25-.17-8.03,0-14.55,6.52-14.55,14.55,0,6.91,4.81,12.68,11.27,14.18.75,5.27,5.27,9.32,10.74,9.32,3.35,0,6.35-1.52,8.33-3.91,2.2,8.05,9.57,13.97,18.32,13.97,6.52,0,12.27-3.28,15.69-8.28,3.02,2.03,6.66,3.2,10.57,3.2,9.71,0,17.71-7.28,18.85-16.68,4.69-3.05,7.8-8.32,7.8-14.33v.02Z"/><path class="cls-18" d="M171.34,46.96c0-.22-.03-.44-.03-.67v-1.03c0-1.69.25-3.06.75-4.13s1.28-1.89,2.36-2.53c.45-.25,1.09-.58,1.92-.95,1.97-.89,2.95-1.91,2.95-3.05,0-.84-.28-1.53-.86-2.05-.58-.52-1.36-.78-2.34-.78-1.13,0-1.99.33-2.58,1-.59.67-.89,1.63-.89,2.86v.14h-5.91c-2.19,0-3.8-2.19-3.02-4.22.63-1.63,1.59-2.99,2.91-4.08,2.31-1.94,5.52-2.89,9.63-2.89,3.89,0,7,.89,9.36,2.67,2.34,1.78,3.53,4.13,3.53,7.03,0,1.05-.14,1.99-.44,2.8-.28.83-.72,1.56-1.3,2.22-.69.77-1.94,1.64-3.78,2.61-.75.39-1.33.7-1.7.91-.78.45-1.31.91-1.56,1.34-.27.44-.39,1.08-.39,1.92,0,.09,0,.23.02.42s.02.34.02.47h-8.64v-.02ZM170.74,55.7v-2.84c0-1.77,1.42-3.19,3.19-3.19h3.39c1.77,0,3.19,1.42,3.19,3.19v2.84c0,1.77-1.42,3.19-3.19,3.19h-3.39c-1.77,0-3.19-1.42-3.19-3.19Z"/></svg>