<?xml version="1.0" encoding="UTF-8"?><svg id="Layer_1" xmlns="http://www.w3.org/2000/svg" viewBox="0 0 376.38 237.88"><defs><style>.cls-1,.cls-2,.cls-3,.cls-4,.cls-5,.cls-6,.cls-7,.cls-8,.cls-9{font-family:PillGothic600mg-Regular, 'Pill Gothic 600mg';}.cls-1,.cls-4,.cls-6{font-size:5.92px;}.cls-1,.cls-10{fill:#c8543b;}.cls-11{fill:#e0cd83;}.cls-2{font-size:5.55px;}.cls-2,.cls-3,.cls-5,.cls-12{fill:#231f20;}.cls-3{font-size:5.23px;}.cls-4,.cls-13{fill:#709345;}.cls-14{fill:#00001b;}.cls-15{fill:#000e05;}.cls-5{font-size:2.45px;}.cls-16{fill:#00a651;}.cls-17{fill:#006570;}.cls-18{fill:#0079c2;}.cls-19{fill:#001500;}.cls-20{fill:#cf6a81;}.cls-21{fill:#f2a172;}.cls-22{fill:#008c46;}.cls-23{fill:#007779;}.cls-24{fill:#00aeef;}.cls-25{fill:#008e86;}.cls-26{fill:#007647;}.cls-27{fill:#363f43;}.cls-28{stroke:#d8e1e7;stroke-miterlimit:10;}.cls-28,.cls-29,.cls-8,.cls-9{fill:#fff;}.cls-6,.cls-30{fill:#dac571;}.cls-31{fill:#8cc63f;}.cls-32{fill:#000200;}.cls-33{fill:#008fd4;}.cls-34{letter-spacing:0em;}.cls-35{fill:#ea8654;}.cls-7{font-size:5.91px;}.cls-7,.cls-36{fill:#0090cc;}.cls-37{fill:#007640;}.cls-8{font-size:7.56px;}.cls-9{font-size:7.58px;}.cls-38{fill:#262728;}.cls-39{fill:#001300;}.cls-40{fill:#000015;}.cls-41{fill:#dfcd83;}.cls-42{fill:#d0d2d3;}.cls-43{fill:#000f24;}.cls-44{fill:#b51e40;}.cls-45{fill:#787e82;}.cls-46{fill:#7aa636;}.cls-47{fill:#008a4b;}.cls-48{letter-spacing:-.06em;}.cls-49{fill:#001200;}.cls-50{fill:#1f1900;}.cls-51{letter-spacing:0em;}.cls-52{letter-spacing:.02em;}.cls-53{letter-spacing:.02em;}.cls-54{letter-spacing:.05em;}.cls-55{fill:#e7ebee;}.cls-56{letter-spacing:0em;}</style></defs><rect class="cls-28" x="34.77" y="16.66" width="305.95" height="197.97"/><path class="cls-36" d="M114.53,191.74c0,1.97-1.61,3.58-3.58,3.58h-62.67c-1.97,0-3.58-1.61-3.58-3.58V28.08c0-1.97,1.61-3.58,3.58-3.58h62.67c1.97,0,3.58,1.61,3.58,3.58"/><path class="cls-13" d="M184.94,191.74c0,1.97-1.61,3.58-3.58,3.58h-62.67c-1.97,0-3.58-1.61-3.58-3.58V28.08c0-1.97,1.61-3.58,3.58-3.58h62.67c1.97,0,3.58,1.61,3.58,3.58"/><text class="cls-8" transform="translate(59.77 35.1)"><tspan x="0" y="0">CH</tspan></text><text class="cls-8" transform="translate(69.19 35.1)"><tspan x="0" y="0">AR</tspan></text><text class="cls-8" transform="translate(78.28 35.1)"><tspan x="0" y="0">ACTER</tspan></text><path class="cls-29" d="M111.85,67.18c0,1.31-1.07,2.39-2.39,2.39h-59.69c-1.31,0-2.39-1.07-2.39-2.39v-22.98c0-1.31,1.07-2.39,2.39-2.39h59.69c1.31,0,2.39,1.07,2.39,2.39"/><path class="cls-29" d="M111.85,97.35c0,1.31-1.07,2.39-2.39,2.39h-59.69c-1.31,0-2.39-1.07-2.39-2.39v-22.98c0-1.31,1.07-2.39,2.39-2.39h59.69c1.31,0,2.39,1.07,2.39,2.39"/><path class="cls-29" d="M111.85,127.05c0,1.31-1.07,2.39-2.39,2.39h-59.69c-1.31,0-2.39-1.07-2.39-2.39v-22.98c0-1.31,1.07-2.39,2.39-2.39h59.69c1.31,0,2.39,1.07,2.39,2.39"/><path class="cls-29" d="M111.85,155.6c0,1.97-1.61,3.58-3.58,3.58h-57.31c-1.97,0-3.58-1.61-3.58-3.58v-20.59c0-1.97,1.61-3.58,3.58-3.58h57.31c1.97,0,3.58,1.61,3.58,3.58"/><path class="cls-29" d="M111.85,185.47c0,1.97-1.61,3.58-3.58,3.58h-57.31c-1.97,0-3.58-1.61-3.58-3.58v-20.59c0-1.97,1.61-3.58,3.58-3.58h57.31c1.97,0,3.58,1.61,3.58,3.58"/><text class="cls-7" transform="translate(49.4 49)"><tspan x="0" y="0">Purpose</tspan></text><text class="cls-7" transform="translate(49.4 79)"><tspan x="0" y="0">M</tspan></text><text class="cls-7" transform="translate(54.08 79)"><tspan x="0" y="0">ission </tspan></text><text class="cls-7" transform="translate(49.4 108.99)"><tspan x="0" y="0">O</tspan></text><text class="cls-7" transform="translate(53.26 108.99)"><tspan x="0" y="0">f</tspan></text><text class="cls-7" transform="translate(55.16 108.99)"><tspan x="0" y="0">fer</tspan></text><text class="cls-7" transform="translate(49.4 138.99)"><tspan x="0" y="0">C</tspan></text><text class="cls-7" transform="translate(52.68 138.99)"><tspan x="0" y="0">ause</tspan></text><text class="cls-7" transform="translate(49.4 168.98)"><tspan x="0" y="0">E</tspan></text><text class="cls-7" transform="translate(52.41 168.98)"><tspan x="0" y="0">f</tspan></text><text class="cls-7" transform="translate(54.31 168.98)"><tspan x="0" y="0">fe</tspan></text><text class="cls-7" transform="translate(58.95 168.98)"><tspan x="0" y="0">ct</tspan></text><path class="cls-30" d="M256.16,191.74c0,1.97-1.61,3.58-3.58,3.58h-63.7c-1.97,0-3.58-1.61-3.58-3.58V28.08c0-1.97,1.61-3.58,3.58-3.58h63.7c1.97,0,3.58,1.61,3.58,3.58"/><path class="cls-29" d="M253.72,65.98c0,1.97-1.61,3.58-3.58,3.58h-58.57c-1.97,0-3.58-1.61-3.58-3.58v-20.59c0-1.97,1.61-3.58,3.58-3.58h58.57c1.97,0,3.58,1.61,3.58,3.58"/><path class="cls-29" d="M253.72,95.86c0,1.97-1.61,3.58-3.58,3.58h-58.57c-1.97,0-3.58-1.61-3.58-3.58v-20.59c0-1.97,1.61-3.58,3.58-3.58h58.57c1.97,0,3.58,1.61,3.58,3.58"/><path class="cls-29" d="M253.72,125.73c0,1.97-1.61,3.58-3.58,3.58h-58.57c-1.97,0-3.58-1.61-3.58-3.58v-20.59c0-1.97,1.61-3.58,3.58-3.58h58.57c1.97,0,3.58,1.61,3.58,3.58"/><path class="cls-29" d="M253.72,155.6c0,1.97-1.61,3.58-3.58,3.58h-58.57c-1.97,0-3.58-1.61-3.58-3.58v-20.59c0-1.97,1.61-3.58,3.58-3.58h58.57c1.97,0,3.58,1.61,3.58,3.58"/><path class="cls-29" d="M253.72,185.47c0,1.97-1.61,3.58-3.58,3.58h-58.57c-1.97,0-3.58-1.61-3.58-3.58v-20.59c0-1.97,1.61-3.58,3.58-3.58h58.57c1.97,0,3.58,1.61,3.58,3.58"/><text class="cls-9" transform="translate(205.13 35.1)"><tspan x="0" y="0">IDE</tspan></text><text class="cls-9" transform="translate(215.74 35.1)"><tspan x="0" y="0">NTI</tspan></text><text class="cls-9" transform="translate(227.32 35.1)"><tspan x="0" y="0">TY</tspan></text><path class="cls-29" d="M182.89,65.98c0,1.97-1.61,3.58-3.58,3.58h-58.57c-1.97,0-3.58-1.61-3.58-3.58v-20.59c0-1.97,1.61-3.58,3.58-3.58h58.57c1.97,0,3.58,1.61,3.58,3.58"/><path class="cls-29" d="M182.89,95.92c0,1.97-1.61,3.58-3.58,3.58h-58.57c-1.97,0-3.58-1.61-3.58-3.58v-20.59c0-1.97,1.61-3.58,3.58-3.58h58.57c1.97,0,3.58,1.61,3.58,3.58"/><path class="cls-29" d="M182.89,125.63c0,1.97-1.61,3.58-3.58,3.58h-58.57c-1.97,0-3.58-1.61-3.58-3.58v-20.59c0-1.97,1.61-3.58,3.58-3.58h58.57c1.97,0,3.58,1.61,3.58,3.58"/><path class="cls-29" d="M182.89,155.6c0,1.97-1.61,3.58-3.58,3.58h-58.57c-1.97,0-3.58-1.61-3.58-3.58v-20.59c0-1.97,1.61-3.58,3.58-3.58h58.57c1.97,0,3.58,1.61,3.58,3.58"/><path class="cls-29" d="M182.89,185.47c0,1.97-1.61,3.58-3.58,3.58h-58.57c-1.97,0-3.58-1.61-3.58-3.58v-20.59c0-1.97,1.61-3.58,3.58-3.58h58.57c1.97,0,3.58,1.61,3.58,3.58"/><text class="cls-4" transform="translate(120.34 49)"><tspan x="0" y="0">R</tspan></text><text class="cls-4" transform="translate(123.82 49)"><tspan x="0" y="0">oles</tspan></text><text class="cls-4" transform="translate(120.34 79)"><tspan x="0" y="0">Goal</tspan></text><text class="cls-4" transform="translate(120.34 108.99)"><tspan x="0" y="0">Measure</tspan></text><text class="cls-4" transform="translate(120.34 138.98)"><tspan x="0" y="0">E</tspan></text><text class="cls-4" transform="translate(123.36 138.98)"><tspan x="0" y="0">f</tspan></text><text class="cls-4" transform="translate(125.27 138.98)"><tspan x="0" y="0">fo</tspan></text><text class="cls-4" transform="translate(130.01 138.98)"><tspan class="cls-52" x="0" y="0">r</tspan><tspan x="2.26" y="0">t</tspan></text><text class="cls-4" transform="translate(120.34 168.98)"><tspan x="0" y="0">Outcome</tspan></text><text class="cls-6" transform="translate(191.27 49)"><tspan x="0" y="0">P</tspan></text><text class="cls-6" transform="translate(194.46 49)"><tspan x="0" y="0">hys</tspan></text><text class="cls-6" transform="translate(202.99 49)"><tspan x="0" y="0">ical</tspan></text><text class="cls-6" transform="translate(191.27 79)"><tspan x="0" y="0">Em</tspan></text><text class="cls-6" transform="translate(199.27 79)"><tspan x="0" y="0">otio</tspan></text><text class="cls-6" transform="translate(208.82 79)"><tspan x="0" y="0">nal</tspan></text><text class="cls-6" transform="translate(191.27 108.99)"><tspan x="0" y="0">I</tspan></text><text class="cls-6" transform="translate(192.94 108.99)"><tspan x="0" y="0">n</tspan><tspan class="cls-51" x="3.52" y="0">t</tspan><tspan x="5.84" y="0">e</tspan></text><text class="cls-6" transform="translate(201.24 108.99)"><tspan x="0" y="0">l</tspan></text><text class="cls-6" transform="translate(202.77 108.99)"><tspan x="0" y="0">lectual</tspan></text><text class="cls-6" transform="translate(191.27 138.98)"><tspan x="0" y="0">S</tspan></text><text class="cls-6" transform="translate(194.68 138.98)"><tspan x="0" y="0">ocial</tspan></text><text class="cls-6" transform="translate(191.27 168.98)"><tspan x="0" y="0">S</tspan></text><text class="cls-6" transform="translate(194.68 168.98)"><tspan x="0" y="0">piri</tspan></text><text class="cls-6" transform="translate(202.64 168.98)"><tspan x="0" y="0">tual</tspan></text><text class="cls-9" transform="translate(125.14 35.1)"><tspan x="0" y="0">RE</tspan></text><text class="cls-9" transform="translate(133.46 35.1)"><tspan class="cls-56" x="0" y="0">L</tspan><tspan class="cls-48" x="4.09" y="0">A</tspan><tspan x="8.44" y="0">T</tspan></text><text class="cls-9" transform="translate(145.5 35.1)"><tspan x="0" y="0">IONSH</tspan></text><text class="cls-9" transform="translate(167.57 35.1)"><tspan x="0" y="0">IP</tspan></text><path class="cls-29" d="M184.67,203.42v.16h1.24v-.16M184.67,196.8v3.31h1.24v-3.31h-1.24ZM184.67,190.17v3.31h1.24v-3.31h-1.24ZM184.67,183.55v3.31h1.24v-3.31h-1.24ZM184.67,176.92v3.31h1.24v-3.31h-1.24ZM184.67,170.29v3.31h1.24v-3.31h-1.24ZM184.67,163.67v3.31h1.24v-3.31h-1.24ZM184.67,157.04v3.31h1.24v-3.31h-1.24ZM184.67,150.41v3.31h1.24v-3.31h-1.24ZM184.67,143.78v3.31h1.24v-3.31h-1.24ZM184.67,137.16v3.31h1.24v-3.31h-1.24ZM184.67,130.53v3.31h1.24v-3.31h-1.24ZM184.67,123.9v3.31h1.24v-3.31h-1.24ZM184.67,117.28v3.31h1.24v-3.31h-1.24ZM184.67,110.65v3.31h1.24v-3.31h-1.24ZM184.67,104.02v3.31h1.24v-3.31h-1.24ZM184.67,97.4v3.31h1.24v-3.31h-1.24ZM184.67,90.77v3.31h1.24v-3.31h-1.24ZM184.67,84.14v3.31h1.24v-3.31h-1.24ZM184.67,77.52v3.31h1.24v-3.31h-1.24ZM184.67,70.89v3.31h1.24v-3.31h-1.24ZM184.67,64.26v3.31h1.24v-3.31h-1.24ZM184.67,57.63v3.31h1.24v-3.31h-1.24ZM184.67,51.01v3.31h1.24v-3.31h-1.24ZM184.67,44.38v3.31h1.24v-3.31h-1.24ZM184.67,37.75v3.31h1.24v-3.31h-1.24ZM184.67,31.13v3.31h1.24v-3.31h-1.24ZM184.67,24.5v3.31h1.24v-3.31h-1.24Z"/><path class="cls-10" d="M330.54,191.74c0,1.97-1.61,3.58-3.58,3.58h-62.67c-1.97,0-3.58-1.61-3.58-3.58V28.08c0-1.97,1.61-3.58,3.58-3.58h62.67c1.97,0,3.58,1.61,3.58,3.58"/><text class="cls-9" transform="translate(284.93 35.1)"><tspan x="0" y="0">V</tspan></text><text class="cls-9" transform="translate(289.54 35.1)"><tspan x="0" y="0">OICE</tspan></text><path class="cls-29" d="M327.86,65.98c0,1.97-1.61,3.58-3.58,3.58h-57.31c-1.97,0-3.58-1.61-3.58-3.58v-20.59c0-1.97,1.61-3.58,3.58-3.58h57.31c1.97,0,3.58,1.61,3.58,3.58"/><path class="cls-29" d="M327.86,95.86c0,1.97-1.61,3.58-3.58,3.58h-57.31c-1.97,0-3.58-1.61-3.58-3.58v-20.59c0-1.97,1.61-3.58,3.58-3.58h57.31c1.97,0,3.58,1.61,3.58,3.58"/><path class="cls-29" d="M327.86,125.73c0,1.97-1.61,3.58-3.58,3.58h-57.31c-1.97,0-3.58-1.61-3.58-3.58v-20.59c0-1.97,1.61-3.58,3.58-3.58h57.31c1.97,0,3.58,1.61,3.58,3.58"/><path class="cls-29" d="M327.86,155.6c0,1.97-1.61,3.58-3.58,3.58h-57.31c-1.97,0-3.58-1.61-3.58-3.58v-20.59c0-1.97,1.61-3.58,3.58-3.58h57.31c1.97,0,3.58,1.61,3.58,3.58"/><path class="cls-29" d="M327.86,185.47c0,1.97-1.61,3.58-3.58,3.58h-57.31c-1.97,0-3.58-1.61-3.58-3.58v-20.59c0-1.97,1.61-3.58,3.58-3.58h57.31c1.97,0,3.58,1.61,3.58,3.58"/><polyline class="cls-36" points="49.36 203.69 49.19 203.8 47.37 203.8 47.2 203.69 47.2 199.97 47.37 199.85 49.19 199.85 49.36 199.97"/><polyline class="cls-13" points="52.01 203.69 51.84 203.8 50.02 203.8 49.86 203.69 49.86 199.97 50.02 199.85 51.84 199.85 52.01 199.97"/><polyline class="cls-41" points="54.66 203.69 54.5 203.8 52.68 203.8 52.51 203.69 52.51 199.97 52.68 199.85 54.5 199.85 54.66 199.97"/><polyline class="cls-10" points="57.32 203.69 57.15 203.8 55.33 203.8 55.16 203.69 55.16 199.97 55.33 199.85 57.15 199.85 57.32 199.97"/><path class="cls-36" d="M62.3,200.08c.43,0,.79.31.79.82v.36c0,.51-.36.76-.78.76h-.65v1.38h-.25v-3.32M62.85,200.9c0-.33-.26-.55-.55-.55h-.64v1.41h.64c.29,0,.55-.15.55-.49v-.36Z"/><path class="cls-36" d="M64.88,202.95l.12.21c-.2.2-.48.29-.75.29-.48,0-.9-.27-.9-.85v-.83c0-.48.37-.81.83-.81s.78.32.78.8v.32l-1.38.23v.28c0,.4.33.58.67.58.3,0,.52-.14.61-.23M63.59,201.76v.31l1.12-.19v-.14c0-.3-.23-.53-.54-.53s-.59.23-.59.54Z"/><path class="cls-36" d="M66.42,200.99l-.04.28-.2-.02c-.3,0-.5.39-.5.76v1.39h-.25v-2.39h.21l.02.5c.08-.28.28-.55.54-.55"/><path class="cls-36" d="M68.02,202.73c0,.5-.34.71-.76.71-.29,0-.56-.13-.76-.37l.12-.21c.15.19.42.32.65.32.28,0,.51-.08.51-.42s-.31-.38-.57-.48c-.35-.13-.62-.26-.62-.68,0-.46.31-.64.71-.64.2,0,.48.12.65.27l-.12.24c-.15-.13-.35-.24-.54-.24-.26,0-.45.08-.45.38s.29.35.53.44c.35.14.66.28.66.7"/><path class="cls-36" d="M69.98,201.79v.81c0,.52-.4.85-.84.85s-.84-.33-.84-.85v-.81c0-.51.4-.83.84-.83s.84.33.84.83M69.74,201.79c0-.35-.29-.57-.59-.57s-.6.21-.6.57v.81c0,.36.29.57.6.57s.59-.22.59-.57v-.81Z"/><path class="cls-36" d="M72.03,201.78v1.62h-.24v-1.59c0-.36-.19-.59-.5-.59s-.69.32-.69.7v1.48h-.25v-2.39h.23l.02.46c.16-.31.41-.52.73-.52.45,0,.7.31.7.83"/><path class="cls-36" d="M73.93,201.78v1.62h-.22l-.03-.33c-.16.29-.37.37-.64.37-.39,0-.67-.27-.67-.72v-.46l1.31-.27v-.21c0-.37-.17-.56-.48-.56-.27,0-.55.15-.66.24l-.09-.23c.16-.12.49-.28.77-.28.44,0,.72.3.72.82M73.68,202.23l-1.07.22v.26c0,.3.22.47.48.47.28,0,.59-.21.59-.54v-.41Z"/><rect class="cls-36" x="74.42" y="199.93" width=".25" height="3.47"/><path class="cls-36" d="M75.26,200.08h.28v.36h-.28M75.28,201h.24v2.39h-.24v-2.39Z"/><path class="cls-36" d="M77.12,203.06l.07.23c-.09.04-.28.13-.47.13-.32,0-.52-.21-.52-.59v-1.58h-.39v-.24h.39v-.73h.24v.73h.58v.24h-.58v1.57c0,.2.1.34.27.34.17,0,.34-.06.41-.1"/><path class="cls-36" d="M77.96,203.48l-.72-2.47h.27l.59,2.11.6-2.11h.27l-.81,2.67c-.15.5-.5.76-.92.76l-.02-.25c.31,0,.59-.22.7-.58"/><text class="cls-5" transform="translate(83.77 203.37)"><tspan class="cls-54" x="0" y="0">ww</tspan><tspan class="cls-34" x="3.87" y="0">w.thinkpersonality.com</tspan></text><text class="cls-3" transform="translate(292.81 203.77)"><tspan x="0" y="0">Pr</tspan></text><text class="cls-3" transform="translate(297.32 203.77)"><tspan x="0" y="0">ofil</tspan></text><text class="cls-3" transform="translate(304.05 203.77)"><tspan x="0" y="0">e</tspan></text><text class="cls-3" transform="translate(307.74 203.77)"><tspan x="0" y="0">Ch</tspan></text><text class="cls-3" transform="translate(313.53 203.77)"><tspan x="0" y="0">a</tspan><tspan class="cls-53" x="2.82" y="0">r</tspan><tspan x="4.81" y="0">t</tspan></text><text class="cls-2" transform="translate(133.09 204.36)"><tspan x="0" y="0">N</tspan></text><text class="cls-2" transform="translate(137.03 204.36)"><tspan x="0" y="0">ame:</tspan></text><path class="cls-29" d="M327.67,201.24v-.15c.01-.86-.69-1.57-1.57-1.57s-1.57.7-1.57,1.57v.15c-.18.07-.34.19-.48.33-.3.3-.46.7-.46,1.12s.16.82.46,1.12c.3.3.7.46,1.12.46.34,0,.67-.12.92-.31.27.19.6.31.94.31.86,0,1.57-.72,1.57-1.58,0-.64-.39-1.19-.94-1.45"/><path class="cls-12" d="M327.67,201.24h.37s0-.13,0-.13h0c0-1.07-.86-1.94-1.94-1.95-1.06.01-1.92.88-1.92,1.94h0v.16h.36s-.15-.34-.15-.34c-.21.1-.42.24-.58.4-.36.37-.57.85-.57,1.37s.21,1,.57,1.37c.36.36.85.57,1.37.57.42,0,.82-.15,1.15-.39l-.22-.28-.21.28c.33.25.73.39,1.15.39,1.06,0,1.92-.88,1.92-1.94,0-.79-.46-1.48-1.15-1.77l-.15.33h.37s-.37,0-.37,0l-.13.33c.42.19.72.63.72,1.12,0,.67-.54,1.21-1.21,1.21-.27,0-.52-.07-.72-.22l-.22-.16-.21.16c-.21.15-.45.22-.72.22-.33,0-.63-.12-.86-.34-.22-.24-.36-.54-.36-.86s.13-.63.36-.86l.37-.25.22-.1v-.39s-.37.01-.37.01h.36c0-.67.55-1.21,1.21-1.21s1.22.54,1.22,1.21h.36-.36s-.01.13-.01.13v.25l.22.09.13-.33"/><path class="cls-31" d="M327.04,203.89c-.25,0-.48-.06-.67-.19.23-.28.37-.63.37-1.02,0-.05,0-.1,0-.15.18-.08.34-.19.48-.33.17-.17.3-.38.38-.61.38.21.65.62.65,1.09,0,.67-.54,1.21-1.21,1.21"/><path class="cls-19" d="M327.04,203.98c-.26,0-.51-.08-.73-.22.02-.02.04-.04.06-.06.19.13.42.19.67.19.67,0,1.21-.54,1.21-1.21,0-.47-.27-.88-.65-1.09,0-.02.02-.05.02-.07.42.21.72.65.72,1.16,0,.72-.58,1.3-1.3,1.3"/><path class="cls-14" d="M327.04,204.27c-.34,0-.67-.11-.94-.31.08-.06.15-.12.21-.19.22.14.47.22.73.22.72,0,1.3-.58,1.3-1.3,0-.51-.29-.94-.72-1.16.03-.09.04-.19.05-.29.55.25.93.81.93,1.44,0,.86-.7,1.58-1.57,1.58"/><path class="cls-11" d="M325.18,203.89c-.33,0-.63-.12-.86-.34-.22-.24-.36-.54-.36-.86s.13-.63.36-.86l.31-.21c.08.22.2.43.38.6.13.14.29.25.47.33,0,.05,0,.1,0,.15,0,.37.13.74.37,1.02-.2.12-.41.19-.66.19"/><path class="cls-50" d="M325.18,203.98c-.36,0-.67-.13-.92-.37-.24-.25-.37-.58-.37-.92s.13-.67.37-.92c.1-.1.22-.18.34-.24,0,.03.02.06.03.09l-.31.21c-.22.24-.36.54-.36.86s.13.63.36.86c.24.22.54.34.86.34.24,0,.46-.06.66-.19.02.02.04.04.05.06-.21.13-.45.21-.71.21"/><path class="cls-46" d="M326.15,203.54l-.05-.03-.04.03c-.2-.24-.31-.54-.31-.85,0-.02,0-.04,0-.06.11.03.23.04.35.04.13,0,.25-.01.37-.04,0,.02,0,.04,0,.06,0,.33-.12.63-.32.85"/><path class="cls-49" d="M326.1,203.59s-.03-.03-.04-.05l.04-.03.05.03s-.03.04-.05.05"/><path class="cls-23" d="M325.84,203.71c-.24-.29-.37-.65-.37-1.02,0-.05,0-.1,0-.15.09.04.18.07.28.09,0,.02,0,.04,0,.06,0,.31.11.61.31.85l-.16.13s-.04.03-.06.04"/><path d="M325.89,203.77s-.04-.04-.05-.06c.02-.01.04-.02.06-.04l.16-.13s.03.04.04.05c-.06.07-.14.12-.21.18"/><path class="cls-14" d="M325.18,204.27c-.42,0-.82-.16-1.12-.46-.3-.3-.46-.7-.46-1.12s.16-.82.46-1.12c.14-.14.3-.25.48-.33,0,.1.03.19.05.28-.12.06-.24.14-.34.24-.24.25-.37.58-.37.92s.13.67.37.92c.25.24.57.37.92.37.26,0,.51-.08.71-.21.01.01.02.02.03.03.06.06.12.11.18.15-.26.19-.58.31-.92.31"/><path class="cls-47" d="M326.37,203.7s-.03-.02-.05-.03l-.18-.13c.2-.23.32-.53.32-.85,0-.02,0-.04,0-.06.09-.02.18-.05.27-.09,0,.05,0,.1,0,.15,0,.39-.14.74-.37,1.02"/><path class="cls-32" d="M326.32,203.77c-.07-.04-.14-.1-.2-.16,0,0,0-.01-.01-.02.02-.02.03-.03.05-.05l.18.13s.03.02.05.03c-.02.02-.04.04-.06.06"/><path class="cls-40" d="M326.1,203.96c-.06-.05-.12-.1-.18-.15-.01-.01-.02-.02-.03-.03.08-.05.15-.11.21-.18,0,0,0,.01.01.02.06.06.13.11.2.16-.06.07-.14.14-.21.19"/><path class="cls-24" d="M326.1,201.41c-.26-.19-.58-.31-.92-.31-.09,0-.19,0-.28.02v-.05c0-.67.55-1.2,1.21-1.2s1.22.53,1.22,1.2v.05c-.1-.02-.19-.02-.28-.02-.34,0-.67.11-.94.31"/><path class="cls-43" d="M327.41,201.15s-.06-.01-.09-.02v-.05c0-.67-.55-1.2-1.22-1.2s-1.2.53-1.21,1.2v.05s-.06.01-.09.02c0-.02,0-.04,0-.06,0-.72.58-1.3,1.3-1.3s1.31.58,1.31,1.3c0,.02,0,.04,0,.06"/><path class="cls-16" d="M326.69,202.26c-.07-.25-.2-.47-.37-.66.22-.14.47-.22.73-.22.09,0,.18,0,.27.03v.06l.04.02c-.06.2-.17.38-.32.52-.1.1-.22.19-.34.25"/><path class="cls-39" d="M327.35,201.49l-.04-.02v-.06s.04,0,.06.01c0,.02-.01.04-.02.06"/><path class="cls-33" d="M326.32,201.61c-.06-.07-.14-.14-.21-.19.27-.2.6-.31.94-.31.09,0,.19,0,.28.02v.09s0,.19,0,.19c-.09-.02-.18-.03-.27-.03-.26,0-.51.08-.73.22"/><path class="cls-14" d="M327.37,201.43s-.04,0-.06-.01v-.29s.07.01.1.02c0,.1-.02.19-.04.28"/><path class="cls-25" d="M325.52,202.26c-.12-.06-.23-.14-.33-.25-.16-.15-.27-.33-.33-.53l.05-.02v-.05c.08-.02.18-.03.27-.03.26,0,.51.08.71.21-.18.19-.3.41-.37.66"/><path class="cls-15" d="M324.87,201.48s0-.04-.01-.05c.02,0,.04,0,.06-.01v.05s-.04.02-.04.02"/><path class="cls-22" d="M326.1,202.4c-.11,0-.21-.01-.32-.04.05-.21.16-.41.32-.58.16.16.27.36.33.58-.1.03-.22.04-.33.04"/><path class="cls-23" d="M325.79,202.36c-.09-.02-.18-.06-.27-.1.07-.24.19-.47.37-.66.08.05.15.11.21.18-.15.17-.26.37-.32.58"/><path class="cls-33" d="M325.89,201.6c-.21-.13-.45-.21-.71-.21-.09,0-.18,0-.27.03v-.28c.08-.02.18-.02.27-.02.35,0,.67.11.92.31-.06.05-.12.1-.18.15-.01.01-.02.02-.03.03"/><path class="cls-14" d="M324.85,201.43c-.02-.09-.04-.18-.04-.28.03,0,.06-.01.09-.02v.28s-.03,0-.05.01"/><path class="cls-47" d="M326.43,202.36c-.06-.22-.17-.42-.33-.58,0,0,0-.01.01-.02.06-.06.13-.11.2-.16.17.18.3.41.37.66-.08.04-.17.07-.25.1"/><path class="cls-18" d="M326.1,201.78c-.06-.07-.14-.12-.21-.18.01-.01.02-.02.03-.03.06-.06.12-.11.18-.15.08.06.15.12.21.19-.07.04-.14.1-.2.16,0,0,0,.01-.01.02"/><path class="cls-14" d="M327.68,201.24h0c-.08-.04-.17-.07-.26-.09,0-.02,0-.04,0-.06,0-.72-.6-1.3-1.31-1.3s-1.3.58-1.3,1.3c0,.02,0,.04,0,.06-.09.02-.18.05-.27.09,0-.05,0-.1,0-.15,0-.86.7-1.57,1.57-1.57s1.58.7,1.58,1.57c0,.05,0,.1,0,.15M327.68,201.24s0,0,0,0h0"/><path class="cls-47" d="M326.74,202.54c0-.09-.03-.19-.05-.28.12-.06.24-.14.34-.25.15-.14.26-.32.32-.52l.18.07.03-.07-.03.07s.04.02.07.03c-.08.23-.21.43-.38.61-.14.14-.3.25-.48.33"/><path class="cls-32" d="M327.54,201.57l-.18-.07s.01-.04.02-.06c.07.02.13.04.19.07l-.03.07M327.6,201.6s-.04-.02-.07-.03l.03-.07s.04.02.06.03c0,.02-.01.05-.02.07"/><path class="cls-40" d="M327.56,201.5c-.06-.03-.13-.05-.19-.07.02-.09.04-.18.04-.28.09.02.18.05.26.09h0l-.11.26M327.63,201.53s-.04-.02-.06-.03l.11-.26h0s0,0,0,0c0,.1-.03.19-.05.29"/><path class="cls-23" d="M325.47,202.54c-.18-.08-.33-.19-.47-.33-.17-.17-.3-.37-.38-.6l.06-.04.18-.08c.06.2.17.38.33.53.1.1.21.18.33.25-.02.09-.04.18-.05.28"/><path d="M324.62,201.61s-.02-.06-.03-.09c.08-.04.17-.07.26-.09,0,.02,0,.04.01.05l-.18.08-.06.04"/><path class="cls-37" d="M326.1,202.67c-.12,0-.24-.01-.35-.04,0-.09.02-.18.04-.27.1.03.21.04.32.04.11,0,.23-.01.33-.04.02.09.04.18.04.27-.12.03-.24.04-.37.04"/><path class="cls-17" d="M325.75,202.63c-.1-.02-.19-.05-.28-.09,0-.09.03-.19.05-.28.08.04.17.08.27.1-.02.09-.03.18-.04.27"/><path class="cls-40" d="M324.6,201.52c-.02-.09-.04-.19-.05-.28.09-.04.17-.07.27-.09,0,.1.02.19.04.28-.09.02-.17.05-.26.09"/><path class="cls-26" d="M326.47,202.63c0-.09-.02-.18-.04-.27.09-.02.17-.05.25-.1.02.09.04.18.05.28-.08.04-.17.07-.27.09"/><path class="cls-10" d="M326.74,202.17c0,.35-.28.64-.63.64s-.64-.28-.64-.64.29-.64.64-.64.63.29.63.64"/><path class="cls-29" d="M326.74,202.17h-.08c0,.3-.25.55-.55.55-.31,0-.55-.25-.55-.55s.25-.55.55-.55.55.25.55.55h.17c0-.4-.32-.72-.72-.72s-.72.32-.72.72.32.72.72.72.72-.32.72-.72"/><text class="cls-1" transform="translate(265.7 49)"><tspan x="0" y="0">V</tspan></text><text class="cls-1" transform="translate(269.21 49)"><tspan x="0" y="0">ision</tspan></text><text class="cls-1" transform="translate(265.7 79)"><tspan x="0" y="0">O</tspan></text><text class="cls-1" transform="translate(269.57 79)"><tspan x="0" y="0">p</tspan></text><text class="cls-1" transform="translate(272.74 79)"><tspan x="0" y="0">po</tspan><tspan class="cls-52" x="6.66" y="0">r</tspan><tspan x="8.92" y="0">t</tspan></text><text class="cls-1" transform="translate(283.06 79)"><tspan x="0" y="0">unity</tspan></text><text class="cls-1" transform="translate(265.7 108.99)"><tspan x="0" y="0">I</tspan></text><text class="cls-1" transform="translate(267.37 108.99)"><tspan x="0" y="0">nsight</tspan></text><text class="cls-1" transform="translate(265.7 138.98)"><tspan x="0" y="0">Co</tspan></text><text class="cls-1" transform="translate(271.98 138.98)"><tspan x="0" y="0">m</tspan></text><text class="cls-1" transform="translate(276.96 138.98)"><tspan x="0" y="0">mitm</tspan></text><text class="cls-1" transform="translate(290.51 138.98)"><tspan x="0" y="0">ent</tspan></text><text class="cls-1" transform="translate(265.7 168.98)"><tspan x="0" y="0">E</tspan></text><text class="cls-1" transform="translate(268.72 168.98)"><tspan x="0" y="0">xperie</tspan></text><text class="cls-1" transform="translate(283.63 168.98)"><tspan x="0" y="0">nce</tspan></text><path class="cls-29" d="M296.53,176.19l-.03.17"/><path class="cls-29" d="M114.36,196.69v.16h1.24v-.16M114.36,190.06v3.31h1.24v-3.31h-1.24ZM114.36,183.43v3.31h1.24v-3.31h-1.24ZM114.36,176.81v3.31h1.24v-3.31h-1.24ZM114.36,170.18v3.31h1.24v-3.31h-1.24ZM114.36,163.55v3.31h1.24v-3.31h-1.24ZM114.36,156.93v3.31h1.24v-3.31h-1.24ZM114.36,150.3v3.31h1.24v-3.31h-1.24ZM114.36,143.67v3.31h1.24v-3.31h-1.24ZM114.36,137.04v3.31h1.24v-3.31h-1.24ZM114.36,130.42v3.31h1.24v-3.31h-1.24ZM114.36,123.79v3.31h1.24v-3.31h-1.24ZM114.36,117.16v3.31h1.24v-3.31h-1.24ZM114.36,110.54v3.31h1.24v-3.31h-1.24ZM114.36,103.91v3.31h1.24v-3.31h-1.24ZM114.36,97.28v3.31h1.24v-3.31h-1.24ZM114.36,90.66v3.31h1.24v-3.31h-1.24ZM114.36,84.03v3.31h1.24v-3.31h-1.24ZM114.36,77.4v3.31h1.24v-3.31h-1.24ZM114.36,70.78v3.31h1.24v-3.31h-1.24ZM114.36,64.15v3.31h1.24v-3.31h-1.24ZM114.36,57.52v3.31h1.24v-3.31h-1.24ZM114.36,50.9v3.31h1.24v-3.31h-1.24ZM114.36,44.27v3.31h1.24v-3.31h-1.24ZM114.36,37.64v3.31h1.24v-3.31h-1.24ZM114.36,31.01v3.31h1.24v-3.31h-1.24ZM114.36,24.39v3.31h1.24v-3.31h-1.24ZM114.36,17.76v3.31h1.24v-3.31h-1.24Z"/><path class="cls-55" d="M347.55,135.81c-11.89,24.81-23.78,49.62-35.67,74.44-1.4-.59-2.79-1.19-4.19-1.78,11.89-24.81,23.78-49.62,35.67-74.44,1.4.59,2.79,1.19,4.19,1.78Z"/><path class="cls-42" d="M347.55,135.81c-11.89,24.81-23.78,49.62-35.67,74.44.72.31,1.44.61,2.16.92,11.89-24.81,23.78-49.62,35.67-74.44-.72-.3-1.44-.61-2.16-.92Z"/><path class="cls-21" d="M314.03,211.16c-1.43,1.65-2.86,3.31-4.29,4.96-1.43,1.65-2.86,3.31-4.29,4.96.37-2.1.74-4.21,1.11-6.31.37-2.1.74-4.21,1.11-6.31,2.12.9,4.23,1.8,6.35,2.69Z"/><path class="cls-38" d="M308.2,217.91c-.91,1.06-1.83,2.12-2.74,3.17.24-1.35.48-2.69.71-4.04.68.29,1.35.57,2.03.86Z"/><path class="cls-45" d="M349.65,136.88c-2.12-.9-4.23-1.8-6.35-2.7.94-1.97,1.89-3.94,2.83-5.91,2.12.9,4.23,1.8,6.35,2.7-.94,1.97-1.89,3.94-2.83,5.91Z"/><path class="cls-27" d="M350.32,130.05c-.94,1.97-1.89,3.94-2.83,5.91.72.31,1.44.61,2.16.92.94-1.97,1.89-3.94,2.83-5.91-.72-.31-1.44-.61-2.16-.92Z"/><path class="cls-35" d="M311.87,210.24c-1.22,2.55-2.45,5.11-3.67,7.66.52-.6,1.03-1.19,1.54-1.79,1.43-1.65,2.86-3.31,4.29-4.96-.72-.31-1.44-.61-2.16-.92Z"/><path class="cls-20" d="M346.13,128.27l.77-1.6c.79-1.65,2.85-2.38,4.61-1.64h0c1.75.75,2.53,2.69,1.74,4.34l-.77,1.6-6.35-2.7Z"/><path class="cls-44" d="M350.31,130.04l2.17.92,1.1-2.3c.57-1.18.08-2.56-1.08-3.2l-2.19,4.58Z"/></svg>