<?xml version="1.0" encoding="UTF-8"?><svg id="Layer_1" xmlns="http://www.w3.org/2000/svg" viewBox="0 0 288.89 250"><defs><style>.cls-1{fill:#d0d2d3;}</style></defs><path class="cls-1" d="M140.17,129.86c.62-.05,1.24-.12,1.86-.11.62,0,1.24.06,1.85.03,1.25-.05,2.5-.06,3.74-.03,2.48.06,4.95.28,7.41.65,2.48.37,4.96.86,7.39,1.47,2.44.62,4.85,1.36,7.22,2.22,2.38.86,4.72,1.83,7.02,2.89.28.13.57.26.85.4-.08-.04-.16-.08-.24-.11,2.94,1.4,5.8,2.96,8.59,4.64,3.31,1.99,6.51,4.15,9.62,6.44,3.11,2.28,6.12,4.69,9.07,7.17,2.96,2.49,5.84,5.06,8.69,7.67,2.85,2.61,5.67,5.27,8.48,7.93.36.34.66.78.98,1.17.29-1.7.57-3.4.86-5.1-.07.02-.14.03-.21.05.12-.01.23-.03.35-.04-.29-.09-.74.15-1.03.25-.25.08-.49.17-.74.24-.5.15-1,.29-1.5.41-1.01.24-2.03.42-3.07.54l.36-.04c-3.66.41-7.4.04-10.89-1.11-.99-.33-1.96-.71-2.9-1.16.11.05.22.11.33.16-.13-.06-.27-.13-.4-.2-.43,1.82-.85,3.64-1.28,5.47,3.09.58,6.23.98,9.36,1.25,3.15.27,6.31.39,9.47.37,1.76-.01,3.52.04,5.29,0,.13-.01.26-.03.39-.04.13-.08.25-.16.38-.24l.36-.41c.19-.28.34-.58.45-.9.38-1.02.53-2.21.25-3.27-1.07-4.06-2.41-8.06-3.88-11.99-.79-2.1-1.65-4.18-2.55-6.24-.82-1.86-1.67-3.71-2.62-5.51-.26-.5-.51-1.01-.8-1.5-.3-.5-.52-1.06-.78-1.58-.54-1.09-1.01-2.21-1.53-3.31l.19.47c-.09-.22-.18-.45-.28-.67.06.16.13.32.19.47-.18-.53-.37-1.06-.55-1.58.04.22.08.44.12.67-.05-.51-.18-.98-.42-1.42-.22-.4-.63-.66-1.09-.51-.25.1-.45.26-.6.48-.23.24-.41.51-.53.82-.33.75-.55,1.58-.56,2.4,0,.68.04,1.39.36,2,.06.12.12.2.22.31.07.15.18.24.34.28.07.05.15.08.23.1l-.37-.18c.27.34.55.67.82,1.01-.09-.11-.17-.22-.26-.33.44.76.87,1.52,1.29,2.28.43.78.82,1.59,1.21,2.39-.06-.15-.12-.29-.18-.44.24.72.58,1.41.87,2.11.24.58.45,1.16.71,1.73-.06-.16-.13-.32-.19-.48.26.71.57,1.42.87,2.11-.07-.16-.13-.33-.2-.49.37.98.79,1.94,1.18,2.91-.07-.17-.13-.33-.2-.5.93,2.32,1.81,4.65,2.66,6.99.85,2.33,1.65,4.68,2.41,7.05.43,1.32.82,2.65,1.23,3.98.61-1.62,1.22-3.25,1.82-4.87-.52.05-1.06.06-1.58.15.13-.01.25-.03.38-.04-1.5.13-3,.24-4.51.24-1.5,0-2.99-.03-4.49-.1-2.99-.13-5.98-.4-8.95-.79-1.68-.22-3.35-.5-5.02-.8-.43-.08-.86.35-1.07.67-.32.47-.51,1-.63,1.55-.14.58-.23,1.22-.14,1.82.04.2.07.4.11.6.07.32.23.59.46.82,2.56,1.25,5.26,2.1,8.09,2.47,2.8.36,5.66.25,8.44-.27.75-.14,1.49-.32,2.22-.53.37-.1.73-.22,1.09-.34.18-.06.35-.12.53-.18.31-.11.64-.21.87-.45-.12.07-.23.15-.35.22.07-.04.14-.08.21-.12.11-.07.23-.14.34-.22.2-.18.35-.39.46-.62.27-.48.46-1.02.54-1.56.07-.45.09-.91.05-1.36-.01-.28-.08-.55-.2-.8-.06-.21-.17-.39-.34-.54-.33-.23-.68-.44-1-.69-.33-.25-.62-.56-.92-.84-.62-.57-1.24-1.14-1.87-1.72-1.24-1.14-2.48-2.27-3.72-3.39-2.49-2.25-5-4.48-7.56-6.66-2.56-2.18-5.16-4.32-7.83-6.37-2.65-2.04-5.36-4.01-8.15-5.87-2.67-1.79-5.41-3.48-8.24-5.02-2.54-1.38-5.13-2.66-7.78-3.81-2.59-1.13-5.23-2.13-7.91-2.99-2.69-.86-5.42-1.58-8.18-2.14-2.75-.55-5.53-.91-8.32-1.09-2.81-.17-5.63-.16-8.43.07-.73.06-1.45.23-2.17.37.06,0,.11-.01.17-.02-.64.06-1.28.19-1.91.3-.19.03-.38.37-.44.51-.11.25-.17.5-.2.77-.02.24-.04.51.04.73.05.14.15.44.35.43h0Z"/><path class="cls-1" d="M130,135.37c3.67,1.86,7.61,3.18,11.68,3.8,4,.61,8.1.63,12.11.13,3.99-.49,7.91-1.5,11.66-2.94,3.9-1.5,7.58-3.53,11-5.91,3.33-2.32,6.39-5.02,9.07-8.05,2.92-3.31,5.36-7.03,7.37-10.96,2.17-4.22,3.76-8.69,4.91-13.29,1.16-4.65,1.77-9.4,2.01-14.19.24-4.87-.01-9.74-.62-14.58-.61-4.9-1.65-9.75-3.04-14.49-.73-2.49-1.57-4.96-2.52-7.38-.95-2.44-2.08-4.84-3.54-7.02-1.46-2.18-3.24-4.22-5.45-5.68-1.83-1.21-3.96-2.09-6.15-2.33-2.12-.23-4.33.08-6.18,1.19-.96.58-1.83,1.25-2.56,2.11-.74.87-1.34,1.87-1.81,2.9-.49,1.08-.81,2.25-1.03,3.41-.22,1.21-.3,2.47-.24,3.7.07,1.55.32,3.07.75,4.56.46,1.57,1.13,3.04,1.9,4.48.63,1.16,1.41,2.25,2.23,3.27.7.87,1.47,1.68,2.3,2.43,1.81,1.65,3.76,3.08,5.89,4.28,4.35,2.46,9.12,4.17,14.03,5.12,4.91.96,9.94,1.17,14.92.86,4.92-.3,9.77-1.17,14.51-2.49,4.87-1.36,9.61-3.13,14.24-5.14,4.65-2.02,9.2-4.28,13.7-6.61,2.17-1.12,4.33-2.26,6.49-3.4-.94-2.12-1.88-4.23-2.82-6.35-2.2,5.19-4.42,10.38-6.59,15.59-.62,1.47-1.23,2.95-1.85,4.42,1.15,1.84,2.31,3.68,3.46,5.52,1.14-3.03,2.26-6.07,3.44-9.08,1.17-3.01,2.34-6.02,3.52-9.03.66-1.69,1.31-3.37,1.99-5.05.18-.44.22-.98.22-1.45-.01-.79-.21-1.58-.48-2.32-.21-.57-.47-1.09-.83-1.58-.13-.21-.29-.4-.49-.55-.2-.23-.46-.38-.76-.46-5.08.03-10.17.18-15.25.29-1.4.03-2.81.06-4.21.09.17,0,.34,0,.51,0-1.07-.02-2.15.06-3.22.09-.9.03-1.8.06-2.7.09-.9.03-1.79.03-2.68.16l-1.31.19c-.46.07-.94.18-1.4.2-.52.02-.78,1.02-.84,1.34-.13.8,0,1.8.25,2.56.26.8.6,1.67,1.2,2.28.16.15.32.29.49.44.29.22.6.3.95.22.1,0,.19,0,.29,0-.15,0-.31,0-.46,0,.21.08.47.06.69.08.26.02.52.04.79.06.49.04.98.07,1.47.1,1.09.08,2.22-.03,3.32-.07,1.93-.06,3.86-.12,5.79-.2,3.83-.17,7.66-.33,11.49-.5,2.16-.09,4.32-.18,6.48-.31-.94-2.12-1.88-4.23-2.82-6.35-1.1,3.05-2.28,6.07-3.43,9.1-1.15,3.03-2.31,6.06-3.48,9.08-.66,1.69-1.32,3.38-1.98,5.07-.28.71-.25,1.58-.13,2.31.07.48.2.95.39,1.4.14.44.33.85.58,1.24.16.21.31.42.47.63.27.32.6.55.99.68.16,0,.32,0,.47,0,.34-.13.57-.38.68-.72,2.23-5.17,4.44-10.34,6.63-15.53.62-1.46,1.24-2.93,1.86-4.39.06-.22.11-.44.17-.66.06-.42.06-.83,0-1.24-.08-.79-.27-1.61-.61-2.33-.24-.51-.53-1.01-.9-1.43-.2-.27-.45-.46-.76-.57-.22-.15-.46-.19-.73-.11-3.28,1.73-6.55,3.47-9.86,5.14-3.31,1.67-6.65,3.28-10.04,4.76-3.38,1.48-6.82,2.83-10.33,3.99-3.47,1.15-7,2.09-10.58,2.8-3.51.69-7.07,1.13-10.65,1.25-.44.02-.88.03-1.33.03.16,0,.31,0,.47,0-2.89.04-5.79-.13-8.65-.54-2.84-.4-5.64-1.05-8.36-1.95-1.53-.51-3.02-1.12-4.48-1.8.16.07.31.15.47.22-2.85-1.35-5.58-3-7.93-5.11.16.14.31.28.47.42-1.03-.93-1.98-1.95-2.82-3.06.15.2.29.39.44.59-.52-.7-.99-1.44-1.41-2.21.13.24.26.49.39.73-.32-.6-.59-1.22-.83-1.85.11.28.21.57.32.85-.19-.51-.35-1.04-.48-1.57.07.29.14.59.21.88-.12-.52-.2-1.04-.25-1.57.03.28.05.55.08.83-.06-.67-.08-1.34-.04-2.01-.01.24-.03.49-.04.73.05-.85.18-1.7.4-2.53-.05.2-.1.4-.16.6.29-1.1.73-2.15,1.32-3.13-.09.15-.18.29-.27.44.74-1.2,1.7-2.24,2.89-3.01-.12.08-.25.16-.37.24,1.42-.91,3.06-1.36,4.74-1.39-.15,0-.29,0-.44,0,1.8-.02,3.57.43,5.19,1.19-.15-.07-.3-.14-.45-.21,1.21.57,2.34,1.32,3.34,2.21-.15-.14-.3-.27-.45-.41.87.78,1.65,1.66,2.35,2.6l-.42-.57c.74.99,1.38,2.05,1.96,3.14-.12-.24-.25-.47-.37-.71.87,1.66,1.59,3.39,2.24,5.15-.1-.27-.2-.54-.3-.81.98,2.66,1.84,5.38,2.56,8.12.2.78.4,1.56.58,2.35-.06-.28-.13-.56-.19-.83.67,2.88,1.2,5.79,1.57,8.72.1.83.2,1.66.28,2.49-.02-.26-.05-.51-.07-.77.3,3.13.43,6.28.36,9.42-.02.89-.05,1.79-.11,2.68.01-.22.03-.45.04-.67-.21,3.58-.67,7.15-1.41,10.66-.21.99-.44,1.98-.7,2.96.05-.18.09-.36.14-.54-1.16,4.44-2.77,8.76-4.88,12.83-.6,1.16-1.25,2.3-1.93,3.42l.23-.38c-1.58,2.59-3.39,5.04-5.42,7.3-1.98,2.2-4.16,4.23-6.49,6.06-1.32,1.04-2.69,2.01-4.1,2.92.1-.06.2-.13.3-.19-3.07,1.97-6.34,3.63-9.74,4.95-3.35,1.3-6.84,2.26-10.4,2.79-1.98.3-3.97.46-5.97.49.1,0,.2,0,.3,0-2.23.03-4.47-.12-6.67-.46-2.22-.34-4.4-.85-6.52-1.57-1.2-.41-2.39-.88-3.54-1.41-.26-.12-.54.19-.62.39-.12.32-.12.66-.09,1,.04.41.14.85.32,1.22.16.34.38.81.73.99h0Z"/><path class="cls-1" d="M142.42,127.89c-.41.08-.82.15-1.22.24-.2.04-.41.09-.61.13-.1.02-.2.05-.3.07-.03,0-.2.02-.07.01.08-.02.06-.02-.06,0-.06,0-.11.02-.17.04-.79.22-1.6.38-2.39.59.08-.02.17-.03.25-.05-.19-.04-.4.07-.58.13-.13.04-.26.08-.39.13-.27.09-.54.18-.8.27-.52.18-1.03.37-1.54.57-1.03.4-2.04.83-3.05,1.3-.67.31-1.34.63-1.99.96.11-.06.23-.12.34-.17-.81.4-1.62.81-2.42,1.24.12-.06.24-.12.36-.18-.32.1-.62.32-.92.49-.2.11-.4.23-.6.34-.4.23-.8.47-1.2.71.13-.07.26-.13.39-.2-.44.19-.84.48-1.25.74-.29.19-.59.39-.88.58-.59.4-1.17.81-1.75,1.23-1.28.93-2.54,1.91-3.76,2.92-.62.52-1.24,1.04-1.84,1.58.15-.12.31-.24.46-.36-.72.54-1.36,1.19-2,1.82-.52.51-1.03,1.03-1.54,1.56-1.14,1.2-2.26,2.43-3.32,3.71-2.02,2.43-3.88,5-5.55,7.68-1.67,2.68-3.17,5.48-4.45,8.37-1.28,2.88-2.37,5.86-3.22,8.9-.85,3.02-1.48,6.12-1.85,9.23-.24,1.95-.35,3.91-.32,5.88.03,1.79.21,3.58.64,5.32.46,1.85,1.13,3.66,2.18,5.26.85,1.3,1.98,2.46,3.25,3.37,1.28.92,2.71,1.53,4.23,1.92,1.53.4,3.04.37,4.58.04,1.73-.37,3.31-1.34,4.61-2.51.88-.8,1.6-1.72,2.28-2.7.18-.26.35-.53.5-.81.29-.53.59-1.07.83-1.63.7-1.66,1.18-3.44,1.25-5.24.03-.85.03-1.71-.07-2.56-.09-.75-.26-1.47-.47-2.19-.43-1.48-1.1-2.83-2-4.09-1-1.4-2.23-2.67-3.56-3.77-2.44-2.02-5.29-3.51-8.18-4.78-2.78-1.21-5.65-2.17-8.58-2.93-2.8-.73-5.66-1.25-8.54-1.53-2.89-.28-5.79-.35-8.69-.22-3.07.14-6.11.53-9.13,1.09-2.86.53-5.68,1.26-8.44,2.18-2.75.92-5.44,2.03-8.04,3.33-2.78,1.39-5.46,2.93-8.01,4.71-2.58,1.81-5.05,3.8-7.32,5.98-1.23,1.18-2.4,2.42-3.53,3.69-.75.84-1.28,1.97-1.51,3.07-.14.69-.25,1.6.41,2.07,3.93,2.78,7.87,5.56,11.8,8.34,1.12.79,2.24,1.58,3.36,2.38,1.36-2.19,2.71-4.38,4.07-6.56-4.84-3.31-9.68-6.62-14.52-9.93-1.36-.93-2.7-1.86-4.07-2.78-.16,1.39-.32,2.78-.48,4.18,1.79-2.72,3.58-5.44,5.37-8.16,1.78-2.71,3.56-5.42,5.34-8.12,1.01-1.53,2.02-3.06,3.02-4.59.27-.42.49-.86.64-1.33.17-.4.28-.81.33-1.24.07-.34.04-.66-.08-.98-.04-.27-.17-.49-.41-.64-.56-.28-1.19-.04-1.67.28-.77.52-1.36,1.24-1.87,2.02-1.79,2.72-3.58,5.44-5.36,8.16-1.78,2.71-3.56,5.42-5.34,8.13-1.01,1.53-2.01,3.06-3.02,4.6-.27.42-.49.86-.64,1.33-.17.39-.28.81-.33,1.24-.04.57-.04,1.24.49,1.61,4.8,3.36,9.65,6.67,14.47,10,1.35.93,2.7,1.87,4.05,2.8.25.15.51.18.77.09.34-.03.64-.16.92-.37.37-.24.69-.52.97-.86.36-.35.66-.75.92-1.18.46-.78.92-1.68.99-2.6.04-.59.04-1.25-.5-1.64-3.92-2.8-7.85-5.6-11.77-8.4-1.12-.8-2.23-1.6-3.35-2.39-.37,1.71-.73,3.42-1.1,5.13.26-.29.52-.57.78-.86-.22.23-.43.46-.65.7,1.5-1.61,3.09-3.13,4.77-4.55.48-.41.97-.81,1.47-1.2-.22.17-.44.35-.66.52,2.37-1.87,4.89-3.55,7.52-5.03.75-.42,1.5-.82,2.27-1.21-.21.11-.42.21-.63.32,2.12-1.07,4.29-2.02,6.52-2.84,2.22-.82,4.48-1.51,6.78-2.07,1.3-.32,2.62-.6,3.94-.83-.19.03-.38.07-.57.1,3.55-.63,7.16-.96,10.77-.98,3.58-.01,7.16.29,10.69.9,1.99.34,3.95.78,5.89,1.33-.15-.04-.31-.09-.46-.13,2.25.64,4.46,1.42,6.61,2.34,2.35,1.01,4.65,2.17,6.74,3.66,1.18.84,2.29,1.79,3.27,2.86-.1-.11-.21-.23-.31-.34,1.34,1.48,2.42,3.19,2.99,5.11-.05-.17-.1-.34-.15-.51.32,1.11.48,2.27.48,3.43,0-.21,0-.43,0-.64,0,.76-.08,1.51-.24,2.26.05-.24.1-.49.15-.73-.11.51-.25,1-.43,1.49.1-.26.2-.53.3-.79-.15.39-.32.77-.51,1.13.15-.27.29-.54.44-.82-.17.31-.36.62-.56.91.18-.25.36-.5.54-.75-.2.27-.41.53-.64.78.19-.21.38-.41.58-.62-.27.29-.56.56-.87.8.2-.15.39-.31.59-.46-.39.31-.81.57-1.26.8.19-.1.38-.19.56-.29-.66.33-1.36.56-2.09.69.17-.03.34-.06.51-.09-1.4.25-2.85.12-4.21-.26.14.04.29.08.43.12-2.09-.6-4-1.8-5.47-3.41.1.11.2.22.29.32-1.4-1.55-2.33-3.47-2.92-5.45l.14.48c-.64-2.2-.86-4.5-.84-6.79v.6c.02-2.53.31-5.06.74-7.55.11-.63.23-1.27.36-1.9-.05.22-.09.45-.14.67.48-2.27,1.09-4.51,1.83-6.71.21-.63.44-1.26.67-1.88-.09.23-.18.47-.26.7.96-2.54,2.08-5.01,3.36-7.4-.13.24-.25.47-.38.71.39-.73.8-1.45,1.19-2.18-.13.23-.25.47-.38.7,1.07-1.88,2.23-3.7,3.48-5.46-.15.21-.3.42-.45.63,1.3-1.83,2.69-3.59,4.17-5.28.42-.48.85-.95,1.29-1.42-.15.17-.31.33-.46.5.48-.52.97-1.03,1.47-1.53.64-.64,1.32-1.25,1.92-1.92-.15.16-.3.32-.45.48,1.27-1.23,2.58-2.44,3.97-3.54-.14.11-.28.22-.43.34.36-.29.72-.58,1.09-.87l-.42.33c.66-.52,1.33-1.03,2.01-1.52.34-.24.67-.48,1.01-.72.47-.33.96-.63,1.4-1.01-.13.11-.27.21-.4.32.56-.39,1.13-.77,1.71-1.14.15-.1.3-.19.45-.28.2-.12.35-.22.55-.4-.29.22-.36.28-.21.18.04-.02.07-.05.11-.07.28-.18.56-.35.85-.52,1.17-.71,2.36-1.36,3.58-1.98-.11.05-.22.11-.32.16.65-.33,1.3-.65,1.97-.95.16-.07.32-.15.48-.22.08-.03.16-.07.24-.1.05-.03.1-.05.15-.08.21-.11.2-.1-.03.01.05-.02.1-.05.15-.07.33-.15.67-.3,1-.44.34-.14.67-.28,1.01-.42.07-.03.14-.06.21-.08.04-.01.08-.03.12-.04.09-.05.19-.1.28-.14-.05.02-.1.04-.15.06.18-.09.38-.17.57-.25.34-.15.67-.29,1.01-.43.17-.07.34-.14.51-.21.08-.03.17-.07.25-.1.04-.01.08-.02.12-.04.06-.02.12-.04.18-.08.15-.08.16-.08.02,0,.03.02.22-.08.25-.09.11-.04.21-.08.32-.12.19-.07.38-.14.57-.2.4-.14.81-.28,1.22-.41.5-.16.9-.79,1.03-1.28.05-.2.11-.45,0-.64-.1-.17-.26-.16-.43-.12h0Z"/><path class="cls-1" d="M142.29,128.82c-.3.15-.61.3-.91.45-.14.07-.28.13-.42.2-.47.22.8-.47-.01,0-.27.15-.55.25-.83.37.72-.31.13-.05-.04.03-.15.07-.31.13-.46.2-.14.06-.28.12-.43.18-.23.09-1.06.42-.47.2.59-.22-.25.11-.49.19-.31.1-.61.21-.92.32-.16.05-.32.11-.48.16-.44.14,1.05-.43.06-.03-.18.07-.33.13-.5.18-.81.24-1.6.49-2.42.68.2-.05.4-.09.6-.14-1.39.41-2.8.76-4.22,1.09.23-.05.46-.11.69-.16-.84.27-1.79.37-2.67.5-.69.1-1.37.18-2.06.27-.7.09-1.4.21-2.11.26-.69.05-1.38.08-2.06.11-2.96.1-5.92.07-8.87-.28-5.55-.67-11.06-2.14-16.18-4.38-4.71-2.06-9.12-4.81-13.07-8.1-4.01-3.34-7.56-7.22-10.52-11.52-2.88-4.19-5.19-8.77-6.82-13.58-.25-.73-.47-1.46-.69-2.2.03-.21.06-.42.1-.63.11-.23.22-.47.33-.7.18-.24.36-.49.55-.73.35-.41.75-.76,1.19-1.06.59-.44,1.22-.81,1.91-1.08.29-.15.6-.24.92-.3.39-.12.8-.17,1.22-.13,3.32.73,6.65,1.46,9.97,2.2,3.31.73,6.61,1.46,9.92,2.19,1.88.41,3.76.83,5.63,1.24.34,0,.61.11.82.34.25.15.37.38.37.7,0,.35-.08.68-.26.97-.16.4-.4.76-.71,1.07-.73.79-1.62,1.49-2.6,1.94-.32.13-.63.25-.95.38-.53.19-1.08.26-1.65.23-4.13.05-8.27-.19-12.37-.73-4.3-.57-8.53-1.48-12.7-2.65-1.12-.32-2.22-.67-3.34-1-1.15-.34-2.28-.75-3.42-1.08,2.32-1.51,4.63-3.02,6.95-4.54.11.44.23.87.34,1.31-.06-.18-.11-.37-.17-.55.28.68.36,1.46.5,2.18.11.55.21,1.09.32,1.64.22,1.15.41,2.3.61,3.45.39,2.27.78,4.54,1.18,6.81.4,2.29.8,4.58,1.12,6.89.32,2.31.67,4.62.89,6.95.06.65.13,1.31.19,1.96.06.65.16,1.31.19,1.96.03.7.05,1.4.03,2.1-.03.83.02,1.7-.16,2.52.02-.16.05-.32.07-.47l.02.1c.09.51-.45,1.21-.73,1.54-.51.59-1.26,1.14-1.97,1.46-.58.26-1.31.58-1.96.46-.15-.04-.31-.08-.46-.12-.27-.14-.42-.36-.43-.66l-.02-.1c.04.13.08.26.12.39-.18-.22-.27-.56-.39-.83-.17-.4-.37-.79-.45-1.22.05.15.09.3.14.45-.16-.25-.23-.59-.33-.87-.15-.42-.33-.86-.41-1.3.05.16.1.33.15.49-.23-.63-.36-1.3-.52-1.95-.13-.52-.25-1.04-.38-1.56-.25-1.03-.5-2.05-.71-3.08-.43-2.1-.87-4.2-1.25-6.3-.38-2.11-.69-4.24-1.04-6.35-.35-2.13-.7-4.27-1.05-6.4-.2-1.19-.38-2.39-.55-3.58-.08-.59-.17-1.18-.25-1.78-.09-.63-.12-1.28-.17-1.92.03-.21.07-.43.1-.64.14-.4.34-.76.62-1.08.53-.7,1.2-1.32,1.94-1.79.62-.39,1.28-.72,1.97-.96.67-.23,1.63-.39,2.32-.07.58.27,1.2.49,1.8.71.62.23,1.24.47,1.87.68,1.27.41,2.55.78,3.84,1.12-.2-.05-.4-.11-.61-.16,5.97,1.59,12.11,2.55,18.28,2.84,1.75.08,3.51.11,5.27.08-1.66,1.88-3.32,3.75-4.98,5.63-3.33-.73-6.66-1.46-9.98-2.18-3.31-.72-6.62-1.45-9.94-2.17-1.88-.41-3.76-.82-5.64-1.24,2.07-1.54,4.14-3.08,6.21-4.62.05.17.1.34.16.51l-.16-.52c1.21,3.91,2.87,7.68,4.93,11.22,2.05,3.53,4.48,6.84,7.24,9.84,1.56,1.7,3.22,3.29,4.96,4.79-.14-.12-.27-.24-.41-.36,2.34,2.03,4.84,3.86,7.49,5.46,2.74,1.66,5.62,3.06,8.61,4.2,1.73.66,3.5,1.23,5.29,1.71-.19-.05-.39-.1-.58-.15,4.29,1.14,8.74,1.79,13.18,1.95,1.26.05,2.51.05,3.77,0l-.67.02c.89-.03,1.78-.03,2.68-.05-.21,0-.42.01-.63.02.29-.03.58-.03.87-.04-.21,0-.42.01-.63.02.61-.04,1.23-.1,1.84-.16.77-.08,1.57-.26,2.35-.22-.2,0-.4.01-.6.02,1.69-.14,3.37-.36,5.02-.72-.19.04-.38.09-.57.13.66-.17,1.33-.29,2-.44l-.54.13c.1-.02.2-.05.31-.08.41-.11.71-.16,1.13-.16h-.46c.29-.04.58-.1.86-.17.14-.03.29-.06.43-.1.26-.06-.39,0-.2.04.16-.06.33-.1.5-.12.15-.02.3-.03.45,0-.13,0-.26,0-.39.01.22-.05.44-.1.66-.15.19-.04-.39.09-.2.05.06-.01.12-.03.18-.04.12-.03.24-.06.37-.09.43-.11,1.31-.24,1.2.49-.11.72-.93,1.29-1.52,1.58h0Z"/><path class="cls-1" d="M134.02,136.93c1-2.91,2.26-5.68,3.79-8.35h-2.59c.98,1.92,2.01,3.81,3.1,5.67.86,1.47,1.69,3.31,3.37,3.97,1.56.61,3.31.03,4.46-1.12,1.27-1.28,1.61-3.09,1.8-4.8s.22-3.5-1.18-4.69c-1.19-1.02-2.85-.93-4.23-.35-3.36,1.42-4.99,5.34-5.42,8.72-.16,1.25,1.36,1.7,2.26,1.3,4.32-1.97,7.8-4.77,11.45-7.74,1.41-1.15,3.37-2.58,5.3-2.25,1.21.21,3.35,1.58,2.65,3.08l2.74.36c-.58-3.66-1.27-7.48-3.66-10.44-2.09-2.59-5.61-4.33-8.96-3.5-6.52,1.6-6.56,9.88-5.16,15.04,1.05,3.88,2.92,8.53.77,12.35l1.3-.74c-3.08-.39-5.15-3.3-5.96-6.08-1.1-3.78.07-7.73,1.44-11.28,1.54-4.01,3.31-7.91,4.66-12s2.45-8.31,3.29-12.57c.12-.6-.06-1.42-.69-1.69-6.83-3.05-7.13,13.15-6.83,16.72.59,6.91,3.11,13.65,7.33,19.18,2.42,3.16,5.32,5.87,8.68,8.02.81.52,1.97.01,2.2-.9.58-2.22,2.02-4.01,3.25-5.9s2.1-3.78,2.27-5.96c.34-4.43-3.3-7.28-7.51-6.89s-8.27,2.84-11.61,5.36c-3.66,2.75-6.82,6.12-9.29,9.98-.65,1.01-1.14,2.2-1.92,3.11-.95,1.12-2.24.71-3.36.07-2.34-1.34-4.39-3.42-6-5.56-.64-.84-2.01-1.09-2.59,0-1.87,3.48.53,7.68,4.34,8.17.68.09,1.24-.54,1.45-1.1,2.6-7.06,4.93-14.21,6.98-21.45l-2.2.9c8.24,4.58,16.78,8.62,25.55,12.09,3.58,1.42,7.88,3.83,11.54,1.39,3-2,4.22-5.54,6.59-8.12,1.35-1.47,3.19-2.84,5.28-2.71,1.65.11,3.22,1.04,3.6,2.71.42,1.88,3.32,1.09,2.89-.8-.78-3.45-4.51-5.31-7.84-4.84-4.09.58-6.69,4.01-8.79,7.24-.91,1.4-1.86,2.95-3.25,3.92-1.78,1.23-3.64.44-5.47-.25-4.6-1.72-9.14-3.61-13.61-5.65-5.09-2.33-10.08-4.86-14.97-7.58-.85-.47-1.94-.05-2.2.9-2.05,7.24-4.38,14.39-6.98,21.45l1.45-1.1c-1.57-.2-2.45-2.35-1.75-3.66h-2.59c1.39,1.84,2.93,3.52,4.73,4.96,1.7,1.36,3.71,2.83,6,2.75s3.65-1.8,4.71-3.64,2.32-3.71,3.75-5.38c2.85-3.34,6.3-6.13,10.17-8.21,2.45-1.32,8.53-3.96,9.8.24.64,2.13-.61,4.42-1.74,6.15-1.38,2.12-2.9,4.12-3.55,6.61l2.2-.9c-9.86-6.3-15.38-18.23-14.57-29.81.11-1.6.36-3.18.73-4.74.19-.79.41-1.57.66-2.34.12-.38.25-.74.46-1.09.12-.2.64-.69.5-.75l-.69-1.69c-.96,4.86-2.25,9.65-3.89,14.32s-3.76,8.71-5.09,13.24c-1.15,3.94-1.39,8.06.33,11.86,1.53,3.38,4.39,5.84,8.11,6.31.5.06,1.06-.33,1.3-.74,2.16-3.85,1.32-8.2.21-12.24-.91-3.32-1.95-6.71-.97-10.15s4.31-4.66,7.36-2.76c3.65,2.27,4.31,7.09,4.92,10.98.2,1.24,2.22,1.48,2.74.36,1.04-2.22.31-4.53-1.57-6.06-2.09-1.71-4.7-1.94-7.16-.92-2.6,1.07-4.57,3.12-6.72,4.87-2.45,1.99-5.19,3.61-8.06,4.92l2.26,1.3c.25-1.96,1.21-4.39,2.87-5.57.4-.28,1.4-.88,1.88-.49.58.48.08,2.58-.04,3.17-.17.87-.49,1.99-1.44,2.3-1,.33-1.48-.97-1.9-1.66-1.3-2.18-2.52-4.4-3.69-6.66-.52-1.01-2.05-.94-2.59,0-1.65,2.89-3.01,5.92-4.09,9.07-.63,1.83,2.27,2.62,2.89.8h0Z"/></svg>